<svg width="2864px" height="2518px" viewBox="0 0 2864 2518" xmlns="http://www.w3.org/2000/svg" xmlns:xlink="http://www.w3.org/1999/xlink" style="width: 2864px; height: 2518px;"><g transform="matrix(1, 0, 0, 1, 0, 0)" clip-path="url(#mainClip453829)"><rect x="0" y="0" width="2864" height="2518" fill="white" stroke="none" transform="matrix(1, 0, 0, 1, 0, 0)"/><g transform="matrix(1, 0, 0, 1, 157.51068318192944, -358.09090909090946)"><g transform="matrix(1, 0, 0, 1, -156.51068318192944, 487.433432981772)"><path d="M 5,0 L 2589.4539781079548,0 C 2591.692554358801,0 2594.4539781079548,2.761423749153968 2594.4539781079548,5 L 2594.4539781079548,2381.1652594321813 C 2594.4539781079548,2383.4038356830274 2591.692554358801,2386.1652594321813 2589.4539781079548,2386.1652594321813 L 5,2386.1652594321813 C 2.761423749153968,2386.1652594321813 0,2383.4038356830274 0,2381.1652594321813 L 0,5 C 0,2.761423749153968 2.761423749153968,0 5,0 z" fill="#FFFFFF" stroke="none" transform="matrix(1, 0, 0, 1, 0.5, 0.5)"/><path d="M 5,0 L 2589.4539781079548,0 C 2591.692554358801,0 2594.4539781079548,2.761423749153968 2594.4539781079548,5 L 2594.4539781079548,2381.1652594321813 C 2594.4539781079548,2383.4038356830274 2591.692554358801,2386.1652594321813 2589.4539781079548,2386.1652594321813 L 5,2386.1652594321813 C 2.761423749153968,2386.1652594321813 0,2383.4038356830274 0,2381.1652594321813 L 0,5 C 0,2.761423749153968 2.761423749153968,0 5,0 z" fill="none" stroke="#021443" stroke-width="1" stroke-linecap="butt" stroke-linejoin="miter" stroke-miterlimit="10" transform="matrix(1, 0, 0, 1, 0.5, 0.5)"/><g transform="matrix(1, 0, 0, 1, 11.261423749153968, 11.261423749153968)"><g transform="matrix(1, 0, 0, 1, 3, 3)"><path d="M 2,0 L 19,0 C 19.895430500338414,0 21,1.1045694996615871 21,2 L 21,19 C 21,19.895430500338414 19.895430500338414,21 19,21 L 2,21 C 1.1045694996615871,21 0,19.895430500338414 0,19 L 0,2 C 0,1.1045694996615871 1.1045694996615871,0 2,0 z" fill="#F0F2F6" stroke="none" transform="matrix(1, 0, 0, 1, 3.5, 3.5)"/><path d="M 2,0 L 19,0 C 19.895430500338414,0 21,1.1045694996615871 21,2 L 21,19 C 21,19.895430500338414 19.895430500338414,21 19,21 L 2,21 C 1.1045694996615871,21 0,19.895430500338414 0,19 L 0,2 C 0,1.1045694996615871 1.1045694996615871,0 2,0 z" fill="none" stroke="#F0F2F6" stroke-width="1" stroke-linecap="butt" stroke-linejoin="miter" stroke-miterlimit="10" transform="matrix(1, 0, 0, 1, 3.5, 3.5)"/><path d="M 0,2 L 4,6 L 8,2" fill="none" stroke="#424242" stroke-width="2" stroke-linecap="round" stroke-linejoin="round" stroke-miterlimit="10" transform="matrix(1, 0, 0, 1, 10, 10)"/></g><text x="0" y="14.9296875" style="font: bold 16px -apple-system, BlinkMacSystemFont, &quot;Segoe UI&quot;, &quot;Roboto&quot;, &quot;Oxygen&quot;, &quot;Ubuntu&quot;, &quot;Cantarell&quot;, &quot;Fira Sans&quot;, &quot;Droid Sans&quot;, &quot;Helvetica Neue&quot;, sans-serif" text-anchor="start" fill="#021443" stroke="none" transform="matrix(1, 0, 0, 1, 34, 7.046875)">server/</text></g></g><g transform="matrix(1, 0, 0, 1, -135.24925943277546, 542.694856730926)"><path d="M 5,0 L 2007.339088171534,0 C 2009.5776644223802,0 2012.339088171534,2.761423749153968 2012.339088171534,5 L 2012.339088171534,1729.8287132028663 C 2012.339088171534,1732.0672894537124 2009.5776644223802,1734.8287132028663 2007.339088171534,1734.8287132028663 L 5,1734.8287132028663 C 2.761423749153968,1734.8287132028663 0,1732.0672894537124 0,1729.8287132028663 L 0,5 C 0,2.761423749153968 2.761423749153968,0 5,0 z" fill="#FFFFFF" stroke="none" transform="matrix(1, 0, 0, 1, 0.5, 0.5)"/><path d="M 5,0 L 2007.339088171534,0 C 2009.5776644223802,0 2012.339088171534,2.761423749153968 2012.339088171534,5 L 2012.339088171534,1729.8287132028663 C 2012.339088171534,1732.0672894537124 2009.5776644223802,1734.8287132028663 2007.339088171534,1734.8287132028663 L 5,1734.8287132028663 C 2.761423749153968,1734.8287132028663 0,1732.0672894537124 0,1729.8287132028663 L 0,5 C 0,2.761423749153968 2.761423749153968,0 5,0 z" fill="none" stroke="#021443" stroke-width="1" stroke-linecap="butt" stroke-linejoin="miter" stroke-miterlimit="10" transform="matrix(1, 0, 0, 1, 0.5, 0.5)"/><g transform="matrix(1, 0, 0, 1, 11.261423749154082, 11.261423749154082)"><g transform="matrix(1, 0, 0, 1, 3, 3)"><path d="M 2,0 L 19,0 C 19.895430500338414,0 21,1.1045694996615871 21,2 L 21,19 C 21,19.895430500338414 19.895430500338414,21 19,21 L 2,21 C 1.1045694996615871,21 0,19.895430500338414 0,19 L 0,2 C 0,1.1045694996615871 1.1045694996615871,0 2,0 z" fill="#F0F2F6" stroke="none" transform="matrix(1, 0, 0, 1, 3.5, 3.5)"/><path d="M 2,0 L 19,0 C 19.895430500338414,0 21,1.1045694996615871 21,2 L 21,19 C 21,19.895430500338414 19.895430500338414,21 19,21 L 2,21 C 1.1045694996615871,21 0,19.895430500338414 0,19 L 0,2 C 0,1.1045694996615871 1.1045694996615871,0 2,0 z" fill="none" stroke="#F0F2F6" stroke-width="1" stroke-linecap="butt" stroke-linejoin="miter" stroke-miterlimit="10" transform="matrix(1, 0, 0, 1, 3.5, 3.5)"/><path d="M 0,2 L 4,6 L 8,2" fill="none" stroke="#424242" stroke-width="2" stroke-linecap="round" stroke-linejoin="round" stroke-miterlimit="10" transform="matrix(1, 0, 0, 1, 10, 10)"/></g><text x="0" y="14.9296875" style="font: bold 16px -apple-system, BlinkMacSystemFont, &quot;Segoe UI&quot;, &quot;Roboto&quot;, &quot;Oxygen&quot;, &quot;Ubuntu&quot;, &quot;Cantarell&quot;, &quot;Fira Sans&quot;, &quot;Droid Sans&quot;, &quot;Helvetica Neue&quot;, sans-serif" text-anchor="start" fill="#021443" stroke="none" transform="matrix(1, 0, 0, 1, 34, 7.046875)">src/</text></g></g><g transform="matrix(1, 0, 0, 1, 1575.8797013750523, 617.2950648697217)"><path d="M 5,0 L 133.77225749661594,0 C 136.01083374746196,0 138.77225749661594,2.761423749153968 138.77225749661594,5 L 138.77225749661594,734.0304789762828 C 138.77225749661594,736.2690552271288 136.01083374746196,739.0304789762828 133.77225749661594,739.0304789762828 L 5,739.0304789762828 C 2.761423749153968,739.0304789762828 0,736.2690552271288 0,734.0304789762828 L 0,5 C 0,2.761423749153968 2.761423749153968,0 5,0 z" fill="#FFFFFF" stroke="none" transform="matrix(1, 0, 0, 1, 0.5, 0.5)"/><path d="M 5,0 L 133.77225749661594,0 C 136.01083374746196,0 138.77225749661594,2.761423749153968 138.77225749661594,5 L 138.77225749661594,734.0304789762828 C 138.77225749661594,736.2690552271288 136.01083374746196,739.0304789762828 133.77225749661594,739.0304789762828 L 5,739.0304789762828 C 2.761423749153968,739.0304789762828 0,736.2690552271288 0,734.0304789762828 L 0,5 C 0,2.761423749153968 2.761423749153968,0 5,0 z" fill="none" stroke="#021443" stroke-width="1" stroke-linecap="butt" stroke-linejoin="miter" stroke-miterlimit="10" transform="matrix(1, 0, 0, 1, 0.5, 0.5)"/><g transform="matrix(1, 0, 0, 1, 11.261423749153954, 11.261423749153911)"><g transform="matrix(1, 0, 0, 1, 3, 3)"><path d="M 2,0 L 19,0 C 19.895430500338414,0 21,1.1045694996615871 21,2 L 21,19 C 21,19.895430500338414 19.895430500338414,21 19,21 L 2,21 C 1.1045694996615871,21 0,19.895430500338414 0,19 L 0,2 C 0,1.1045694996615871 1.1045694996615871,0 2,0 z" fill="#F0F2F6" stroke="none" transform="matrix(1, 0, 0, 1, 3.5, 3.5)"/><path d="M 2,0 L 19,0 C 19.895430500338414,0 21,1.1045694996615871 21,2 L 21,19 C 21,19.895430500338414 19.895430500338414,21 19,21 L 2,21 C 1.1045694996615871,21 0,19.895430500338414 0,19 L 0,2 C 0,1.1045694996615871 1.1045694996615871,0 2,0 z" fill="none" stroke="#F0F2F6" stroke-width="1" stroke-linecap="butt" stroke-linejoin="miter" stroke-miterlimit="10" transform="matrix(1, 0, 0, 1, 3.5, 3.5)"/><path d="M 0,2 L 4,6 L 8,2" fill="none" stroke="#424242" stroke-width="2" stroke-linecap="round" stroke-linejoin="round" stroke-miterlimit="10" transform="matrix(1, 0, 0, 1, 10, 10)"/></g><text x="0" y="14.9296875" style="font: bold 16px -apple-system, BlinkMacSystemFont, &quot;Segoe UI&quot;, &quot;Roboto&quot;, &quot;Oxygen&quot;, &quot;Ubuntu&quot;, &quot;Cantarell&quot;, &quot;Fira Sans&quot;, &quot;Droid Sans&quot;, &quot;Helvetica Neue&quot;, sans-serif" text-anchor="start" fill="#021443" stroke="none" transform="matrix(1, 0, 0, 1, 34, 7.046875)">services/</text></g></g><g transform="matrix(1, 0, 0, 1, -113.98783568362138, 597.9562804800801)"><path d="M 5,0 L 743.2176289236871,0 C 745.4562051745331,0 748.2176289236871,2.761423749153968 748.2176289236871,5 L 748.2176289236871,1653.3058657045583 C 748.2176289236871,1655.5444419554044 745.4562051745331,1658.3058657045583 743.2176289236871,1658.3058657045583 L 5,1658.3058657045583 C 2.761423749153968,1658.3058657045583 0,1655.5444419554044 0,1653.3058657045583 L 0,5 C 0,2.761423749153968 2.761423749153968,0 5,0 z" fill="#FFFFFF" stroke="none" transform="matrix(1, 0, 0, 1, 0.5, 0.5)"/><path d="M 5,0 L 743.2176289236871,0 C 745.4562051745331,0 748.2176289236871,2.761423749153968 748.2176289236871,5 L 748.2176289236871,1653.3058657045583 C 748.2176289236871,1655.5444419554044 745.4562051745331,1658.3058657045583 743.2176289236871,1658.3058657045583 L 5,1658.3058657045583 C 2.761423749153968,1658.3058657045583 0,1655.5444419554044 0,1653.3058657045583 L 0,5 C 0,2.761423749153968 2.761423749153968,0 5,0 z" fill="none" stroke="#021443" stroke-width="1" stroke-linecap="butt" stroke-linejoin="miter" stroke-miterlimit="10" transform="matrix(1, 0, 0, 1, 0.5, 0.5)"/><g transform="matrix(1, 0, 0, 1, 11.261423749153911, 11.261423749154082)"><g transform="matrix(1, 0, 0, 1, 3, 3)"><path d="M 2,0 L 19,0 C 19.895430500338414,0 21,1.1045694996615871 21,2 L 21,19 C 21,19.895430500338414 19.895430500338414,21 19,21 L 2,21 C 1.1045694996615871,21 0,19.895430500338414 0,19 L 0,2 C 0,1.1045694996615871 1.1045694996615871,0 2,0 z" fill="#F0F2F6" stroke="none" transform="matrix(1, 0, 0, 1, 3.5, 3.5)"/><path d="M 2,0 L 19,0 C 19.895430500338414,0 21,1.1045694996615871 21,2 L 21,19 C 21,19.895430500338414 19.895430500338414,21 19,21 L 2,21 C 1.1045694996615871,21 0,19.895430500338414 0,19 L 0,2 C 0,1.1045694996615871 1.1045694996615871,0 2,0 z" fill="none" stroke="#F0F2F6" stroke-width="1" stroke-linecap="butt" stroke-linejoin="miter" stroke-miterlimit="10" transform="matrix(1, 0, 0, 1, 3.5, 3.5)"/><path d="M 0,2 L 4,6 L 8,2" fill="none" stroke="#424242" stroke-width="2" stroke-linecap="round" stroke-linejoin="round" stroke-miterlimit="10" transform="matrix(1, 0, 0, 1, 10, 10)"/></g><text x="0" y="14.9296875" style="font: bold 16px -apple-system, BlinkMacSystemFont, &quot;Segoe UI&quot;, &quot;Roboto&quot;, &quot;Oxygen&quot;, &quot;Ubuntu&quot;, &quot;Cantarell&quot;, &quot;Fira Sans&quot;, &quot;Droid Sans&quot;, &quot;Helvetica Neue&quot;, sans-serif" text-anchor="start" fill="#021443" stroke="none" transform="matrix(1, 0, 0, 1, 34, 7.046875)">routes/</text></g></g><g transform="matrix(1, 0, 0, 1, 944.2676749946805, 1370.3235334052447)"><path d="M 5,0 L 906.5607299949243,0 C 908.7993062457703,0 911.5607299949243,2.761423749153968 911.5607299949243,5 L 911.5607299949243,737.0589537210154 C 911.5607299949243,739.2975299718614 908.7993062457703,742.0589537210154 906.5607299949243,742.0589537210154 L 5,742.0589537210154 C 2.761423749153968,742.0589537210154 0,739.2975299718614 0,737.0589537210154 L 0,5 C 0,2.761423749153968 2.761423749153968,0 5,0 z" fill="#FFFFFF" stroke="none" transform="matrix(1, 0, 0, 1, 0.5, 0.5)"/><path d="M 5,0 L 906.5607299949243,0 C 908.7993062457703,0 911.5607299949243,2.761423749153968 911.5607299949243,5 L 911.5607299949243,737.0589537210154 C 911.5607299949243,739.2975299718614 908.7993062457703,742.0589537210154 906.5607299949243,742.0589537210154 L 5,742.0589537210154 C 2.761423749153968,742.0589537210154 0,739.2975299718614 0,737.0589537210154 L 0,5 C 0,2.761423749153968 2.761423749153968,0 5,0 z" fill="none" stroke="#021443" stroke-width="1" stroke-linecap="butt" stroke-linejoin="miter" stroke-miterlimit="10" transform="matrix(1, 0, 0, 1, 0.5, 0.5)"/><g transform="matrix(1, 0, 0, 1, 11.261423749153911, 11.261423749153911)"><g transform="matrix(1, 0, 0, 1, 3, 3)"><path d="M 2,0 L 19,0 C 19.895430500338414,0 21,1.1045694996615871 21,2 L 21,19 C 21,19.895430500338414 19.895430500338414,21 19,21 L 2,21 C 1.1045694996615871,21 0,19.895430500338414 0,19 L 0,2 C 0,1.1045694996615871 1.1045694996615871,0 2,0 z" fill="#F0F2F6" stroke="none" transform="matrix(1, 0, 0, 1, 3.5, 3.5)"/><path d="M 2,0 L 19,0 C 19.895430500338414,0 21,1.1045694996615871 21,2 L 21,19 C 21,19.895430500338414 19.895430500338414,21 19,21 L 2,21 C 1.1045694996615871,21 0,19.895430500338414 0,19 L 0,2 C 0,1.1045694996615871 1.1045694996615871,0 2,0 z" fill="none" stroke="#F0F2F6" stroke-width="1" stroke-linecap="butt" stroke-linejoin="miter" stroke-miterlimit="10" transform="matrix(1, 0, 0, 1, 3.5, 3.5)"/><path d="M 0,2 L 4,6 L 8,2" fill="none" stroke="#424242" stroke-width="2" stroke-linecap="round" stroke-linejoin="round" stroke-miterlimit="10" transform="matrix(1, 0, 0, 1, 10, 10)"/></g><text x="0" y="14.9296875" style="font: bold 16px -apple-system, BlinkMacSystemFont, &quot;Segoe UI&quot;, &quot;Roboto&quot;, &quot;Oxygen&quot;, &quot;Ubuntu&quot;, &quot;Cantarell&quot;, &quot;Fira Sans&quot;, &quot;Droid Sans&quot;, &quot;Helvetica Neue&quot;, sans-serif" text-anchor="start" fill="#021443" stroke="none" transform="matrix(1, 0, 0, 1, 34, 7.046875)">models/</text></g></g><g transform="matrix(1, 0, 0, 1, -58.447026562248986, 653.2177042292342)"><path d="M 5,0 L 291.01464948644906,0 C 293.2532257372951,0 296.01464948644906,2.761423749153968 296.01464948644906,5 L 296.01464948644906,697.0027924542434 C 296.01464948644906,699.2413687050894 293.2532257372951,702.0027924542434 291.01464948644906,702.0027924542434 L 5,702.0027924542434 C 2.761423749153968,702.0027924542434 0,699.2413687050894 0,697.0027924542434 L 0,5 C 0,2.761423749153968 2.761423749153968,0 5,0 z" fill="#FFFFFF" stroke="none" transform="matrix(1, 0, 0, 1, 0.5, 0.5)"/><path d="M 5,0 L 291.01464948644906,0 C 293.2532257372951,0 296.01464948644906,2.761423749153968 296.01464948644906,5 L 296.01464948644906,697.0027924542434 C 296.01464948644906,699.2413687050894 293.2532257372951,702.0027924542434 291.01464948644906,702.0027924542434 L 5,702.0027924542434 C 2.761423749153968,702.0027924542434 0,699.2413687050894 0,697.0027924542434 L 0,5 C 0,2.761423749153968 2.761423749153968,0 5,0 z" fill="none" stroke="#021443" stroke-width="1" stroke-linecap="butt" stroke-linejoin="miter" stroke-miterlimit="10" transform="matrix(1, 0, 0, 1, 0.5, 0.5)"/><g transform="matrix(1, 0, 0, 1, 11.261423749153996, 11.261423749153911)"><g transform="matrix(1, 0, 0, 1, 3, 3)"><path d="M 2,0 L 19,0 C 19.895430500338414,0 21,1.1045694996615871 21,2 L 21,19 C 21,19.895430500338414 19.895430500338414,21 19,21 L 2,21 C 1.1045694996615871,21 0,19.895430500338414 0,19 L 0,2 C 0,1.1045694996615871 1.1045694996615871,0 2,0 z" fill="#F0F2F6" stroke="none" transform="matrix(1, 0, 0, 1, 3.5, 3.5)"/><path d="M 2,0 L 19,0 C 19.895430500338414,0 21,1.1045694996615871 21,2 L 21,19 C 21,19.895430500338414 19.895430500338414,21 19,21 L 2,21 C 1.1045694996615871,21 0,19.895430500338414 0,19 L 0,2 C 0,1.1045694996615871 1.1045694996615871,0 2,0 z" fill="none" stroke="#F0F2F6" stroke-width="1" stroke-linecap="butt" stroke-linejoin="miter" stroke-miterlimit="10" transform="matrix(1, 0, 0, 1, 3.5, 3.5)"/><path d="M 0,2 L 4,6 L 8,2" fill="none" stroke="#424242" stroke-width="2" stroke-linecap="round" stroke-linejoin="round" stroke-miterlimit="10" transform="matrix(1, 0, 0, 1, 10, 10)"/></g><text x="0" y="14.9296875" style="font: bold 16px -apple-system, BlinkMacSystemFont, &quot;Segoe UI&quot;, &quot;Roboto&quot;, &quot;Oxygen&quot;, &quot;Ubuntu&quot;, &quot;Cantarell&quot;, &quot;Fira Sans&quot;, &quot;Droid Sans&quot;, &quot;Helvetica Neue&quot;, sans-serif" text-anchor="start" fill="#021443" stroke="none" transform="matrix(1, 0, 0, 1, 34, 7.046875)">planets/</text></g></g><g transform="matrix(1, 0, 0, 1, -89.47751373876919, 1562.5272054863322)"><path d="M 5,0 L 697.4458832296809,0 C 699.6844594805269,0 702.4458832296809,2.761423749153968 702.4458832296809,5 L 702.4458832296809,667.4735169491524 C 702.4458832296809,669.7120931999984 699.6844594805269,672.4735169491524 697.4458832296809,672.4735169491524 L 5,672.4735169491524 C 2.761423749153968,672.4735169491524 0,669.7120931999984 0,667.4735169491524 L 0,5 C 0,2.761423749153968 2.761423749153968,0 5,0 z" fill="#FFFFFF" stroke="none" transform="matrix(1, 0, 0, 1, 0.5, 0.5)"/><path d="M 5,0 L 697.4458832296809,0 C 699.6844594805269,0 702.4458832296809,2.761423749153968 702.4458832296809,5 L 702.4458832296809,667.4735169491524 C 702.4458832296809,669.7120931999984 699.6844594805269,672.4735169491524 697.4458832296809,672.4735169491524 L 5,672.4735169491524 C 2.761423749153968,672.4735169491524 0,669.7120931999984 0,667.4735169491524 L 0,5 C 0,2.761423749153968 2.761423749153968,0 5,0 z" fill="none" stroke="#021443" stroke-width="1" stroke-linecap="butt" stroke-linejoin="miter" stroke-miterlimit="10" transform="matrix(1, 0, 0, 1, 0.5, 0.5)"/><g transform="matrix(1, 0, 0, 1, 11.261423749153911, 11.261423749153911)"><g transform="matrix(1, 0, 0, 1, 3, 3)"><path d="M 2,0 L 19,0 C 19.895430500338414,0 21,1.1045694996615871 21,2 L 21,19 C 21,19.895430500338414 19.895430500338414,21 19,21 L 2,21 C 1.1045694996615871,21 0,19.895430500338414 0,19 L 0,2 C 0,1.1045694996615871 1.1045694996615871,0 2,0 z" fill="#F0F2F6" stroke="none" transform="matrix(1, 0, 0, 1, 3.5, 3.5)"/><path d="M 2,0 L 19,0 C 19.895430500338414,0 21,1.1045694996615871 21,2 L 21,19 C 21,19.895430500338414 19.895430500338414,21 19,21 L 2,21 C 1.1045694996615871,21 0,19.895430500338414 0,19 L 0,2 C 0,1.1045694996615871 1.1045694996615871,0 2,0 z" fill="none" stroke="#F0F2F6" stroke-width="1" stroke-linecap="butt" stroke-linejoin="miter" stroke-miterlimit="10" transform="matrix(1, 0, 0, 1, 3.5, 3.5)"/><path d="M 0,2 L 4,6 L 8,2" fill="none" stroke="#424242" stroke-width="2" stroke-linecap="round" stroke-linejoin="round" stroke-miterlimit="10" transform="matrix(1, 0, 0, 1, 10, 10)"/></g><text x="0" y="14.9296875" style="font: bold 16px -apple-system, BlinkMacSystemFont, &quot;Segoe UI&quot;, &quot;Roboto&quot;, &quot;Oxygen&quot;, &quot;Ubuntu&quot;, &quot;Cantarell&quot;, &quot;Fira Sans&quot;, &quot;Droid Sans&quot;, &quot;Helvetica Neue&quot;, sans-serif" text-anchor="start" fill="#021443" stroke="none" transform="matrix(1, 0, 0, 1, 34, 7.046875)">launches/</text></g></g><g transform="matrix(1, 0, 0, 1, 731.2444655803442, 770.0848745324387)"><path d="M 0,405.4810361115069 C 15.428991117701912,251.54140772435994 70.51366889138887,116.40634317097954 163.5419732632106,0" fill="none" stroke="#97A0B8" stroke-width="2" stroke-linecap="butt" stroke-linejoin="miter" stroke-miterlimit="10" transform="matrix(1, 0, 0, 1, 1, 2.4952580222744323)"/><path d="M 0,0 L 6,4.62 L 0,9.24 z" fill="#97A0B8" stroke="none" transform="matrix(0.6242989854949162, -0.781185494431392, 0.781185494431392, 0.6242989854949162, 156.56280338047316, 5.079295170307663)"/><path d="M 0,0 L 6,4.62 L 0,9.24 z" fill="none" stroke="#97A0B8" stroke-width="2" stroke-linecap="butt" stroke-linejoin="miter" stroke-miterlimit="10" transform="matrix(0.6242989854949162, -0.781185494431392, 0.781185494431392, 0.6242989854949162, 156.56280338047316, 5.079295170307663)"/></g><g transform="matrix(1, 0, 0, 1, 757.623072223224, 708.3678072838442)"><path d="M 0,465.90784543537495 C 265.3132625911785,267.88162373744535 544.9461935689842,113.51361663064745 839.6813976799417,0" fill="none" stroke="#97A0B8" stroke-width="2" stroke-linecap="butt" stroke-linejoin="miter" stroke-miterlimit="10" transform="matrix(1, 0, 0, 1, 1, 4.182385657253652)"/><path d="M 0,0 L 6,4.62 L 0,9.24 z" fill="#97A0B8" stroke="none" transform="matrix(0.9331822236817545, -0.35940358568658687, 0.35940358568658687, 0.9331822236817545, 832.4886775482975, 2.386908883650055)"/><path d="M 0,0 L 6,4.62 L 0,9.24 z" fill="none" stroke="#97A0B8" stroke-width="2" stroke-linecap="butt" stroke-linejoin="miter" stroke-miterlimit="10" transform="matrix(0.9331822236817545, -0.35940358568658687, 0.35940358568658687, 0.9331822236817545, 832.4886775482975, 2.386908883650055)"/></g><g transform="matrix(1, 0, 0, 1, -28.767811458519816, 771.5007704016055)"><path d="M 918.9953398363527,0 C 638.084958306056,276.7588629663303 332.26205461772395,514.1066456021786 0,714.1943099134767" fill="none" stroke="#97A0B8" stroke-width="2" stroke-linecap="butt" stroke-linejoin="miter" stroke-miterlimit="10" transform="matrix(1, 0, 0, 1, 1, 1)"/><path d="M 0,0 L 6,4.62 L 0,9.24 z" fill="#97A0B8" stroke="none" transform="matrix(-0.8566609624677539, 0.5158798264943314, -0.5158798264943314, -0.8566609624677539, 9.379991535678089, 715.5409247746173)"/><path d="M 0,0 L 6,4.62 L 0,9.24 z" fill="none" stroke="#97A0B8" stroke-width="2" stroke-linecap="butt" stroke-linejoin="miter" stroke-miterlimit="10" transform="matrix(-0.8566609624677539, 0.5158798264943314, -0.5158798264943314, -0.8566609624677539, 9.379991535678089, 715.5409247746173)"/></g><g transform="matrix(1, 0, 0, 1, 530.3298761633899, 1049.9121119179495)"><path d="M 0,564.1503288214285 C 341.0660880872681,333.20270573678545 696.5062888700113,146.42043752379186 1071.6111520123081,0" fill="none" stroke="#97A0B8" stroke-width="2" stroke-linecap="butt" stroke-linejoin="miter" stroke-miterlimit="10" transform="matrix(1, 0, 0, 1, 1, 4.165502023673193)"/><path d="M 0,0 L 6,4.62 L 0,9.24 z" fill="#97A0B8" stroke="none" transform="matrix(0.9315456120361614, -0.3636244940817017, 0.3636244940817017, 0.9315456120361614, 1064.4103875653975, 2.40713275463804)"/><path d="M 0,0 L 6,4.62 L 0,9.24 z" fill="none" stroke="#97A0B8" stroke-width="2" stroke-linecap="butt" stroke-linejoin="miter" stroke-miterlimit="10" transform="matrix(0.9315456120361614, -0.3636244940817017, 0.3636244940817017, 0.9315456120361614, 1064.4103875653975, 2.40713275463804)"/></g><g transform="matrix(1, 0, 0, 1, 12.636978130009226, 770.1604006686821)"><path d="M 0,1398.8264785230535 C 254.59800121990148,905.9008439194473 549.0175991825622,439.627456059476 882.9871486021141,0" fill="none" stroke="#97A0B8" stroke-width="2" stroke-linecap="butt" stroke-linejoin="miter" stroke-miterlimit="10" transform="matrix(1, 0, 0, 1, 1, 2.434837113279755)"/><path d="M 0,0 L 6,4.62 L 0,9.24 z" fill="#97A0B8" stroke="none" transform="matrix(0.6049141150330742, -0.7962907216800612, 0.7962907216800612, 0.6049141150330742, 876.0738866627207, 5.2141689535873805)"/><path d="M 0,0 L 6,4.62 L 0,9.24 z" fill="none" stroke="#97A0B8" stroke-width="2" stroke-linecap="butt" stroke-linejoin="miter" stroke-miterlimit="10" transform="matrix(0.6049141150330742, -0.7962907216800612, 0.7962907216800612, 0.6049141150330742, 876.0738866627207, 5.2141689535873805)"/></g><g transform="matrix(1, 0, 0, 1, 22.056477482271845, 712.4823949108041)"><path d="M 0,1455.979849779951 C 501.30838509282864,933.7591463767956 1033.4366722192965,448.43351965555735 1595.943468399888,0" fill="none" stroke="#97A0B8" stroke-width="2" stroke-linecap="butt" stroke-linejoin="miter" stroke-miterlimit="10" transform="matrix(1, 0, 0, 1, 1, 3.1265529651035946)"/><path d="M 0,0 L 6,4.62 L 0,9.24 z" fill="#97A0B8" stroke="none" transform="matrix(0.7819335763096474, -0.6233617587241014, 0.6233617587241014, 0.7819335763096474, 1588.5900020404151, 3.8775521536217328)"/><path d="M 0,0 L 6,4.62 L 0,9.24 z" fill="none" stroke="#97A0B8" stroke-width="2" stroke-linecap="butt" stroke-linejoin="miter" stroke-miterlimit="10" transform="matrix(0.7819335763096474, -0.6233617587241014, 0.6233617587241014, 0.7819335763096474, 1588.5900020404151, 3.8775521536217328)"/></g><g transform="matrix(1, 0, 0, 1, 534.0272629524409, 1463.5380457693084)"><path d="M 0,149.4522507291133 C 152.99404884401827,56.95089558966447 291.8980985926172,11.79146298672913 430.50543480485976,0" fill="none" stroke="#97A0B8" stroke-width="2" stroke-linecap="butt" stroke-linejoin="miter" stroke-miterlimit="10" transform="matrix(1, 0, 0, 1, 1, 5.280940735931513)"/><path d="M 0,0 L 6,4.62 L 0,9.24 z" fill="#97A0B8" stroke="none" transform="matrix(0.9964009865338269, -0.08476481601712187, 0.08476481601712187, 0.9964009865338269, 424.13901444912386, 1.2709218902650852)"/><path d="M 0,0 L 6,4.62 L 0,9.24 z" fill="none" stroke="#97A0B8" stroke-width="2" stroke-linecap="butt" stroke-linejoin="miter" stroke-miterlimit="10" transform="matrix(0.9964009865338269, -0.08476481601712187, 0.08476481601712187, 0.9964009865338269, 424.13901444912386, 1.2709218902650852)"/></g><g transform="matrix(1, 0, 0, 1, 772.8322291918853, 1215.5933786786206)"><path d="M 0,0 C 102.0415908651953,39.224544241493504 190.18711823207957,112.39127330966312 258.83584063404965,223.81809877005935" fill="none" stroke="#97A0B8" stroke-width="2" stroke-linecap="butt" stroke-linejoin="miter" stroke-miterlimit="10" transform="matrix(1, 0, 0, 1, 1, 1)"/><path d="M 0,0 L 6,4.62 L 0,9.24 z" fill="#97A0B8" stroke="none" transform="matrix(0.524531678004389, 0.8513909318109395, -0.8513909318109395, 0.524531678004389, 260.09754499298543, 216.4350258950025)"/><path d="M 0,0 L 6,4.62 L 0,9.24 z" fill="none" stroke="#97A0B8" stroke-width="2" stroke-linecap="butt" stroke-linejoin="miter" stroke-miterlimit="10" transform="matrix(0.524531678004389, 0.8513909318109395, -0.8513909318109395, 0.524531678004389, 260.09754499298543, 216.4350258950025)"/></g><g transform="matrix(1, 0, 0, 1, 71.2112659378121, 2063.606090123034)"><path d="M 0,106.29235388423558 C 294.38408932875006,30.996857960036778 593.6476546031301,-4.169434615287173 898.7398194116199,0.38910145280942743" fill="none" stroke="#97A0B8" stroke-width="2" stroke-linecap="butt" stroke-linejoin="miter" stroke-miterlimit="10" transform="matrix(1, 0, 0, 1, 1, 5.290657896472009)"/><path d="M 0,0 L 6,4.62 L 0,9.24 z" fill="#97A0B8" stroke="none" transform="matrix(0.9998883944025159, 0.014939837320359238, -0.014939837320359238, 0.9998883944025159, 892.8096226992224, 0.9556961058992997)"/><path d="M 0,0 L 6,4.62 L 0,9.24 z" fill="none" stroke="#97A0B8" stroke-width="2" stroke-linecap="butt" stroke-linejoin="miter" stroke-miterlimit="10" transform="matrix(0.9998883944025159, 0.014939837320359238, -0.014939837320359238, 0.9998883944025159, 892.8096226992224, 0.9556961058992997)"/></g><g transform="matrix(1, 0, 0, 1, 162.1919958426626, 1333.4975203440893)"><path d="M 0,0 C 312.5462745516773,199.71270545109905 600.666324187283,437.86559969088785 862.4689845545447,714.468175834719" fill="none" stroke="#97A0B8" stroke-width="2" stroke-linecap="butt" stroke-linejoin="miter" stroke-miterlimit="10" transform="matrix(1, 0, 0, 1, 1, 1)"/><path d="M 0,0 L 6,4.62 L 0,9.24 z" fill="#97A0B8" stroke="none" transform="matrix(0.6874098652742249, 0.726269699990074, -0.726269699990074, 0.6874098652742249, 862.0124815115793, 707.2084543572215)"/><path d="M 0,0 L 6,4.62 L 0,9.24 z" fill="none" stroke="#97A0B8" stroke-width="2" stroke-linecap="butt" stroke-linejoin="miter" stroke-miterlimit="10" transform="matrix(0.6874098652742249, 0.726269699990074, -0.726269699990074, 0.6874098652742249, 862.0124815115793, 707.2084543572215)"/></g><g transform="matrix(1, 0, 0, 1, 740.997568846379, 1220.3605605713378)"><path d="M 0,0 C 142.98720975652236,258.7869431356901 243.04470445068318,534.5624788071696 299.7546587777133,827.3496514075237" fill="none" stroke="#97A0B8" stroke-width="2" stroke-linecap="butt" stroke-linejoin="miter" stroke-miterlimit="10" transform="matrix(1, 0, 0, 1, 1, 1)"/><path d="M 0,0 L 6,4.62 L 0,9.24 z" fill="#97A0B8" stroke="none" transform="matrix(0.19015593590161248, 0.9817538999369353, -0.9817538999369353, 0.19015593590161248, 303.95927024411066, 820.5988536840997)"/><path d="M 0,0 L 6,4.62 L 0,9.24 z" fill="none" stroke="#97A0B8" stroke-width="2" stroke-linecap="butt" stroke-linejoin="miter" stroke-miterlimit="10" transform="matrix(0.19015593590161248, 0.9817538999369353, -0.9817538999369353, 0.19015593590161248, 303.95927024411066, 820.5988536840997)"/></g><g transform="matrix(1, 0, 0, 1, 1125.3649636893156, 1425.5849571543986)"><path d="M 0,21.254431539928646 C 177.58217658304852,-9.968675512188838 354.2489513680514,-6.7865448014317735 530.7983229346119,30.43975284524504" fill="none" stroke="#97A0B8" stroke-width="2" stroke-linecap="butt" stroke-linejoin="miter" stroke-miterlimit="10" transform="matrix(1, 0, 0, 1, 1, 1.0000000000001021)"/><path d="M 0,0 L 6,4.62 L 0,9.24 z" fill="#97A0B8" stroke="none" transform="matrix(0.9784849246525942, 0.20631832741568815, -0.20631832741568815, 0.9784849246525942, 525.9021191347041, 25.47492420144034)"/><path d="M 0,0 L 6,4.62 L 0,9.24 z" fill="none" stroke="#97A0B8" stroke-width="2" stroke-linecap="butt" stroke-linejoin="miter" stroke-miterlimit="10" transform="matrix(0.9784849246525942, 0.20631832741568815, -0.20631832741568815, 0.9784849246525942, 525.9021191347041, 25.47492420144034)"/></g><g transform="matrix(1, 0, 0, 1, 1079.6430603031488, 1482.2140989910076)"><path d="M 0,0 C 243.20799535633319,148.89472014382363 463.5770456577786,335.7968393912495 658.2120548466269,560.721679096805" fill="none" stroke="#97A0B8" stroke-width="2" stroke-linecap="butt" stroke-linejoin="miter" stroke-miterlimit="10" transform="matrix(1, 0, 0, 1, 1, 1)"/><path d="M 0,0 L 6,4.62 L 0,9.24 z" fill="#97A0B8" stroke="none" transform="matrix(0.6543546628273681, 0.7561877909858645, -0.7561877909858645, 0.6543546628273681, 658.1251598011901, 553.4052460176415)"/><path d="M 0,0 L 6,4.62 L 0,9.24 z" fill="none" stroke="#97A0B8" stroke-width="2" stroke-linecap="butt" stroke-linejoin="miter" stroke-miterlimit="10" transform="matrix(0.6543546628273681, 0.7561877909858645, -0.7561877909858645, 0.6543546628273681, 658.1251598011901, 553.4052460176415)"/></g><g transform="matrix(1, 0, 0, 1, 1119.9390073819059, 2025.7759750598266)"><path d="M 0,28.72554626201145 C 185.78239235780507,-8.203261432535555 371.8969921529424,-9.511201441482399 558.3790905067403,24.41784236004287" fill="none" stroke="#97A0B8" stroke-width="2" stroke-linecap="butt" stroke-linejoin="miter" stroke-miterlimit="10" transform="matrix(1, 0, 0, 1, 1, 1)"/><path d="M 0,0 L 6,4.62 L 0,9.24 z" fill="#97A0B8" stroke="none" transform="matrix(0.9838483534965655, 0.1790039589564906, -0.1790039589564906, 0.9838483534965655, 553.3191503226434, 19.619435254193306)"/><path d="M 0,0 L 6,4.62 L 0,9.24 z" fill="none" stroke="#97A0B8" stroke-width="2" stroke-linecap="butt" stroke-linejoin="miter" stroke-miterlimit="10" transform="matrix(0.9838483534965655, 0.1790039589564906, -0.1790039589564906, 0.9838483534965655, 553.3191503226434, 19.619435254193306)"/></g><g transform="matrix(1, 0, 0, 1, -65.57733242260338, 750.0526842248192)"><path d="M 3.7865163354906315,732.2092612825829 C -11.492290979183295,481.99277326143783 18.825218793057942,237.93425700195655 94.56097755190574,0" fill="none" stroke="#97A0B8" stroke-width="2" stroke-linecap="butt" stroke-linejoin="miter" stroke-miterlimit="10" transform="matrix(1, 0, 0, 1, 1.00000000000002, 1.8084330015013474)"/><path d="M 0,0 L 6,4.62 L 0,9.24 z" fill="#97A0B8" stroke="none" transform="matrix(0.3033105891610904, -0.9528917496246634, 0.9528917496246634, 0.3033105891610904, 89.03544354451218, 7.077380326949752)"/><path d="M 0,0 L 6,4.62 L 0,9.24 z" fill="none" stroke="#97A0B8" stroke-width="2" stroke-linecap="butt" stroke-linejoin="miter" stroke-miterlimit="10" transform="matrix(0.3033105891610904, -0.9528917496246634, 0.9528917496246634, 0.3033105891610904, 89.03544354451218, 7.077380326949752)"/></g><g transform="matrix(1, 0, 0, 1, -28.34287211774739, 1523.0203720864008)"><path d="M 0,0 C 159.9807412244283,90.8289290641344 294.98745861134717,215.26782807466952 404.6488231066816,376.3228444271267" fill="none" stroke="#97A0B8" stroke-width="2" stroke-linecap="butt" stroke-linejoin="miter" stroke-miterlimit="10" transform="matrix(1, 0, 0, 1, 1, 1)"/><path d="M 0,0 L 6,4.62 L 0,9.24 z" fill="#97A0B8" stroke="none" transform="matrix(0.5628151216366633, 0.826582808227408, -0.826582808227408, 0.5628151216366633, 405.52792982923563, 368.93655890757344)"/><path d="M 0,0 L 6,4.62 L 0,9.24 z" fill="none" stroke="#97A0B8" stroke-width="2" stroke-linecap="butt" stroke-linejoin="miter" stroke-miterlimit="10" transform="matrix(0.5628151216366633, 0.826582808227408, -0.826582808227408, 0.5628151216366633, 405.52792982923563, 368.93655890757344)"/></g><g transform="matrix(1, 0, 0, 1, 388.7326140594306, 1658.092201725802)"><path d="M 0.7893177540274792,239.25540389719913 C -5.726417331693483,141.7722134547804 24.736006315492432,62.07758074461037 88.26399485419233,0" fill="none" stroke="#97A0B8" stroke-width="2" stroke-linecap="butt" stroke-linejoin="miter" stroke-miterlimit="10" transform="matrix(1, 0, 0, 1, 1, 2.824420006393588)"/><path d="M 0,0 L 6,4.62 L 0,9.24 z" fill="#97A0B8" stroke="none" transform="matrix(0.7152242873457412, -0.698894998401603, 0.698894998401603, 0.7152242873457412, 81.02852995015674, 4.412348787667485)"/><path d="M 0,0 L 6,4.62 L 0,9.24 z" fill="none" stroke="#97A0B8" stroke-width="2" stroke-linecap="butt" stroke-linejoin="miter" stroke-miterlimit="10" transform="matrix(0.7152242873457412, -0.698894998401603, 0.698894998401603, 0.7152242873457412, 81.02852995015674, 4.412348787667485)"/></g><g transform="matrix(1, 0, 0, 1, 44.98902987047478, 750.8298830964202)"><path d="M 0,0 C 72.43813498229127,172.06815054874107 101.14612940828741,351.95039839171704 85.72564260314135,539.7034481834519" fill="none" stroke="#97A0B8" stroke-width="2" stroke-linecap="butt" stroke-linejoin="miter" stroke-miterlimit="10" transform="matrix(1, 0, 0, 1, 1, 1)"/><path d="M 0,0 L 6,4.62 L 0,9.24 z" fill="#97A0B8" stroke="none" transform="matrix(-0.08185613004040765, 0.9966441561434091, -0.9966441561434091, -0.08185613004040765, 91.90313151480676, 534.1051144112347)"/><path d="M 0,0 L 6,4.62 L 0,9.24 z" fill="none" stroke="#97A0B8" stroke-width="2" stroke-linecap="butt" stroke-linejoin="miter" stroke-miterlimit="10" transform="matrix(-0.08185613004040765, 0.9966441561434091, -0.9966441561434091, -0.08185613004040765, 91.90313151480676, 534.1051144112347)"/></g><g opacity="0.5" transform="matrix(1, 0, 0, 1, 2182.983029396836, 1838.3991304769843)"><path d="M 5,0 L 111.86659749830794,0 C 114.10517374915398,0 116.86659749830794,2.761423749153968 116.86659749830794,5 L 116.86659749830794,50.52284749830794 C 116.86659749830794,52.76142374915397 114.10517374915398,55.52284749830794 111.86659749830794,55.52284749830794 L 5,55.52284749830794 C 2.761423749153968,55.52284749830794 0,52.76142374915397 0,50.52284749830794 L 0,5 C 0,2.761423749153968 2.761423749153968,0 5,0 z" opacity="0.5" fill="#FFFFFF" stroke="none" transform="matrix(1, 0, 0, 1, 0.5, 0.5)"/><path d="M 5,0 L 111.86659749830794,0 C 114.10517374915398,0 116.86659749830794,2.761423749153968 116.86659749830794,5 L 116.86659749830794,50.52284749830794 C 116.86659749830794,52.76142374915397 114.10517374915398,55.52284749830794 111.86659749830794,55.52284749830794 L 5,55.52284749830794 C 2.761423749153968,55.52284749830794 0,52.76142374915397 0,50.52284749830794 L 0,5 C 0,2.761423749153968 2.761423749153968,0 5,0 z" opacity="0.5" fill="none" stroke="#021443" stroke-width="1" stroke-linecap="butt" stroke-linejoin="miter" stroke-miterlimit="10" transform="matrix(1, 0, 0, 1, 0.5, 0.5)"/><g opacity="0.5" transform="matrix(1, 0, 0, 1, 11.261423749153975, 11.261423749153968)"><g opacity="0.5" transform="matrix(1, 0, 0, 1, 3, 3)"><path d="M 2,0 L 19,0 C 19.895430500338414,0 21,1.1045694996615871 21,2 L 21,19 C 21,19.895430500338414 19.895430500338414,21 19,21 L 2,21 C 1.1045694996615871,21 0,19.895430500338414 0,19 L 0,2 C 0,1.1045694996615871 1.1045694996615871,0 2,0 z" opacity="0.5" fill="#F0F2F6" stroke="none" transform="matrix(1, 0, 0, 1, 3.5, 3.5)"/><path d="M 2,0 L 19,0 C 19.895430500338414,0 21,1.1045694996615871 21,2 L 21,19 C 21,19.895430500338414 19.895430500338414,21 19,21 L 2,21 C 1.1045694996615871,21 0,19.895430500338414 0,19 L 0,2 C 0,1.1045694996615871 1.1045694996615871,0 2,0 z" opacity="0.5" fill="none" stroke="#F0F2F6" stroke-width="1" stroke-linecap="butt" stroke-linejoin="miter" stroke-miterlimit="10" transform="matrix(1, 0, 0, 1, 3.5, 3.5)"/><path d="M 2,0 L 6,4 L 2,8" opacity="0.5" fill="none" stroke="#424242" stroke-width="2" stroke-linecap="round" stroke-linejoin="round" stroke-miterlimit="10" transform="matrix(1, 0, 0, 1, 10, 10)"/></g><text x="0" y="14.9296875" style="font: bold 16px -apple-system, BlinkMacSystemFont, &quot;Segoe UI&quot;, &quot;Roboto&quot;, &quot;Oxygen&quot;, &quot;Ubuntu&quot;, &quot;Cantarell&quot;, &quot;Fira Sans&quot;, &quot;Droid Sans&quot;, &quot;Helvetica Neue&quot;, sans-serif" text-anchor="start" opacity="0.5" fill="#021443" stroke="none" transform="matrix(1, 0, 0, 1, 34, 7.046875)">.github/</text></g></g><g opacity="0.5" transform="matrix(1, 0, 0, 1, 1057.8303185246232, 2256.753163943556)"><path d="M 5,0 L 103.91347249830794,0 C 106.15204874915398,0 108.91347249830794,2.761423749153968 108.91347249830794,5 L 108.91347249830794,50.52284749830794 C 108.91347249830794,52.76142374915397 106.15204874915398,55.52284749830794 103.91347249830794,55.52284749830794 L 5,55.52284749830794 C 2.761423749153968,55.52284749830794 0,52.76142374915397 0,50.52284749830794 L 0,5 C 0,2.761423749153968 2.761423749153968,0 5,0 z" opacity="0.5" fill="#FFFFFF" stroke="none" transform="matrix(1, 0, 0, 1, 0.5, 0.5)"/><path d="M 5,0 L 103.91347249830794,0 C 106.15204874915398,0 108.91347249830794,2.761423749153968 108.91347249830794,5 L 108.91347249830794,50.52284749830794 C 108.91347249830794,52.76142374915397 106.15204874915398,55.52284749830794 103.91347249830794,55.52284749830794 L 5,55.52284749830794 C 2.761423749153968,55.52284749830794 0,52.76142374915397 0,50.52284749830794 L 0,5 C 0,2.761423749153968 2.761423749153968,0 5,0 z" opacity="0.5" fill="none" stroke="#021443" stroke-width="1" stroke-linecap="butt" stroke-linejoin="miter" stroke-miterlimit="10" transform="matrix(1, 0, 0, 1, 0.5, 0.5)"/><g opacity="0.5" transform="matrix(1, 0, 0, 1, 11.261423749153975, 11.261423749153968)"><g opacity="0.5" transform="matrix(1, 0, 0, 1, 3, 3)"><path d="M 2,0 L 19,0 C 19.895430500338414,0 21,1.1045694996615871 21,2 L 21,19 C 21,19.895430500338414 19.895430500338414,21 19,21 L 2,21 C 1.1045694996615871,21 0,19.895430500338414 0,19 L 0,2 C 0,1.1045694996615871 1.1045694996615871,0 2,0 z" opacity="0.5" fill="#F0F2F6" stroke="none" transform="matrix(1, 0, 0, 1, 3.5, 3.5)"/><path d="M 2,0 L 19,0 C 19.895430500338414,0 21,1.1045694996615871 21,2 L 21,19 C 21,19.895430500338414 19.895430500338414,21 19,21 L 2,21 C 1.1045694996615871,21 0,19.895430500338414 0,19 L 0,2 C 0,1.1045694996615871 1.1045694996615871,0 2,0 z" opacity="0.5" fill="none" stroke="#F0F2F6" stroke-width="1" stroke-linecap="butt" stroke-linejoin="miter" stroke-miterlimit="10" transform="matrix(1, 0, 0, 1, 3.5, 3.5)"/><path d="M 2,0 L 6,4 L 2,8" opacity="0.5" fill="none" stroke="#424242" stroke-width="2" stroke-linecap="round" stroke-linejoin="round" stroke-miterlimit="10" transform="matrix(1, 0, 0, 1, 10, 10)"/></g><text x="0" y="14.9296875" style="font: bold 16px -apple-system, BlinkMacSystemFont, &quot;Segoe UI&quot;, &quot;Roboto&quot;, &quot;Oxygen&quot;, &quot;Ubuntu&quot;, &quot;Cantarell&quot;, &quot;Fira Sans&quot;, &quot;Droid Sans&quot;, &quot;Helvetica Neue&quot;, sans-serif" text-anchor="start" opacity="0.5" fill="#021443" stroke="none" transform="matrix(1, 0, 0, 1, 34, 7.046875)">public/</text></g></g><g opacity="0.5" transform="matrix(1, 0, 0, 1, 2599.744477998658, 2790.385371573729)"><path d="M 5,0 L 98.95253499830794,0 C 101.19111124915398,0 103.95253499830794,2.761423749153968 103.95253499830794,5 L 103.95253499830794,50.52284749830794 C 103.95253499830794,52.76142374915397 101.19111124915398,55.52284749830794 98.95253499830794,55.52284749830794 L 5,55.52284749830794 C 2.761423749153968,55.52284749830794 0,52.76142374915397 0,50.52284749830794 L 0,5 C 0,2.761423749153968 2.761423749153968,0 5,0 z" opacity="0.5" fill="#FFFFFF" stroke="none" transform="matrix(1, 0, 0, 1, 0.5, 0.5)"/><path d="M 5,0 L 98.95253499830794,0 C 101.19111124915398,0 103.95253499830794,2.761423749153968 103.95253499830794,5 L 103.95253499830794,50.52284749830794 C 103.95253499830794,52.76142374915397 101.19111124915398,55.52284749830794 98.95253499830794,55.52284749830794 L 5,55.52284749830794 C 2.761423749153968,55.52284749830794 0,52.76142374915397 0,50.52284749830794 L 0,5 C 0,2.761423749153968 2.761423749153968,0 5,0 z" opacity="0.5" fill="none" stroke="#021443" stroke-width="1" stroke-linecap="butt" stroke-linejoin="miter" stroke-miterlimit="10" transform="matrix(1, 0, 0, 1, 0.5, 0.5)"/><g opacity="0.5" transform="matrix(1, 0, 0, 1, 11.261423749153975, 11.261423749153968)"><g opacity="0.5" transform="matrix(1, 0, 0, 1, 3, 3)"><path d="M 2,0 L 19,0 C 19.895430500338414,0 21,1.1045694996615871 21,2 L 21,19 C 21,19.895430500338414 19.895430500338414,21 19,21 L 2,21 C 1.1045694996615871,21 0,19.895430500338414 0,19 L 0,2 C 0,1.1045694996615871 1.1045694996615871,0 2,0 z" opacity="0.5" fill="#F0F2F6" stroke="none" transform="matrix(1, 0, 0, 1, 3.5, 3.5)"/><path d="M 2,0 L 19,0 C 19.895430500338414,0 21,1.1045694996615871 21,2 L 21,19 C 21,19.895430500338414 19.895430500338414,21 19,21 L 2,21 C 1.1045694996615871,21 0,19.895430500338414 0,19 L 0,2 C 0,1.1045694996615871 1.1045694996615871,0 2,0 z" opacity="0.5" fill="none" stroke="#F0F2F6" stroke-width="1" stroke-linecap="butt" stroke-linejoin="miter" stroke-miterlimit="10" transform="matrix(1, 0, 0, 1, 3.5, 3.5)"/><path d="M 2,0 L 6,4 L 2,8" opacity="0.5" fill="none" stroke="#424242" stroke-width="2" stroke-linecap="round" stroke-linejoin="round" stroke-miterlimit="10" transform="matrix(1, 0, 0, 1, 10, 10)"/></g><text x="0" y="14.9296875" style="font: bold 16px -apple-system, BlinkMacSystemFont, &quot;Segoe UI&quot;, &quot;Roboto&quot;, &quot;Oxygen&quot;, &quot;Ubuntu&quot;, &quot;Cantarell&quot;, &quot;Fira Sans&quot;, &quot;Droid Sans&quot;, &quot;Helvetica Neue&quot;, sans-serif" text-anchor="start" opacity="0.5" fill="#021443" stroke="none" transform="matrix(1, 0, 0, 1, 34, 7.046875)">client/</text></g></g><g opacity="0.5" transform="matrix(1, 0, 0, 1, 2320.7137111785637, 2796.8144211664917)"><path d="M 5,0 L 90.96815999830794,0 C 93.20673624915398,0 95.96815999830794,2.761423749153968 95.96815999830794,5 L 95.96815999830794,50.52284749830794 C 95.96815999830794,52.76142374915397 93.20673624915398,55.52284749830794 90.96815999830794,55.52284749830794 L 5,55.52284749830794 C 2.761423749153968,55.52284749830794 0,52.76142374915397 0,50.52284749830794 L 0,5 C 0,2.761423749153968 2.761423749153968,0 5,0 z" opacity="0.5" fill="#FFFFFF" stroke="none" transform="matrix(1, 0, 0, 1, 0.5, 0.5)"/><path d="M 5,0 L 90.96815999830794,0 C 93.20673624915398,0 95.96815999830794,2.761423749153968 95.96815999830794,5 L 95.96815999830794,50.52284749830794 C 95.96815999830794,52.76142374915397 93.20673624915398,55.52284749830794 90.96815999830794,55.52284749830794 L 5,55.52284749830794 C 2.761423749153968,55.52284749830794 0,52.76142374915397 0,50.52284749830794 L 0,5 C 0,2.761423749153968 2.761423749153968,0 5,0 z" opacity="0.5" fill="none" stroke="#021443" stroke-width="1" stroke-linecap="butt" stroke-linejoin="miter" stroke-miterlimit="10" transform="matrix(1, 0, 0, 1, 0.5, 0.5)"/><g opacity="0.5" transform="matrix(1, 0, 0, 1, 11.261423749153975, 11.261423749153968)"><g opacity="0.5" transform="matrix(1, 0, 0, 1, 3, 3)"><path d="M 2,0 L 19,0 C 19.895430500338414,0 21,1.1045694996615871 21,2 L 21,19 C 21,19.895430500338414 19.895430500338414,21 19,21 L 2,21 C 1.1045694996615871,21 0,19.895430500338414 0,19 L 0,2 C 0,1.1045694996615871 1.1045694996615871,0 2,0 z" opacity="0.5" fill="#F0F2F6" stroke="none" transform="matrix(1, 0, 0, 1, 3.5, 3.5)"/><path d="M 2,0 L 19,0 C 19.895430500338414,0 21,1.1045694996615871 21,2 L 21,19 C 21,19.895430500338414 19.895430500338414,21 19,21 L 2,21 C 1.1045694996615871,21 0,19.895430500338414 0,19 L 0,2 C 0,1.1045694996615871 1.1045694996615871,0 2,0 z" opacity="0.5" fill="none" stroke="#F0F2F6" stroke-width="1" stroke-linecap="butt" stroke-linejoin="miter" stroke-miterlimit="10" transform="matrix(1, 0, 0, 1, 3.5, 3.5)"/><path d="M 2,0 L 6,4 L 2,8" opacity="0.5" fill="none" stroke="#424242" stroke-width="2" stroke-linecap="round" stroke-linejoin="round" stroke-miterlimit="10" transform="matrix(1, 0, 0, 1, 10, 10)"/></g><text x="0" y="14.9296875" style="font: bold 16px -apple-system, BlinkMacSystemFont, &quot;Segoe UI&quot;, &quot;Roboto&quot;, &quot;Oxygen&quot;, &quot;Ubuntu&quot;, &quot;Cantarell&quot;, &quot;Fira Sans&quot;, &quot;Droid Sans&quot;, &quot;Helvetica Neue&quot;, sans-serif" text-anchor="start" opacity="0.5" fill="#021443" stroke="none" transform="matrix(1, 0, 0, 1, 34, 7.046875)">data/</text></g></g><g opacity="0.5" transform="matrix(1, 0, 0, 1, 67.14473801414644, 359.09090909090946)"><path d="M 5,0 L 119.03847249830794,0 C 121.27704874915398,0 124.03847249830794,2.761423749153968 124.03847249830794,5 L 124.03847249830794,36.42909749830794 C 124.03847249830794,38.66767374915397 121.27704874915398,41.42909749830794 119.03847249830794,41.42909749830794 L 5,41.42909749830794 C 2.761423749153968,41.42909749830794 0,38.66767374915397 0,36.42909749830794 L 0,5 C 0,2.761423749153968 2.761423749153968,0 5,0 z" opacity="0.5" fill="#FFFFFF" stroke="none" transform="matrix(1, 0, 0, 1, 1, 1)"/><path d="M 5,0 L 119.03847249830794,0 C 121.27704874915398,0 124.03847249830794,2.761423749153968 124.03847249830794,5 L 124.03847249830794,36.42909749830794 C 124.03847249830794,38.66767374915397 121.27704874915398,41.42909749830794 119.03847249830794,41.42909749830794 L 5,41.42909749830794 C 2.761423749153968,41.42909749830794 0,38.66767374915397 0,36.42909749830794 L 0,5 C 0,2.761423749153968 2.761423749153968,0 5,0 z" opacity="0.5" fill="none" stroke="#021443" stroke-width="2" stroke-linecap="butt" stroke-linejoin="miter" stroke-miterlimit="10" transform="matrix(1, 0, 0, 1, 1, 1)"/><g opacity="0.5" transform="matrix(1, 0, 0, 1, 11.761423749153975, 11.761423749153968)"><text x="0" y="14.9296875" style="font: bold 16px -apple-system, BlinkMacSystemFont, &quot;Segoe UI&quot;, &quot;Roboto&quot;, &quot;Oxygen&quot;, &quot;Ubuntu&quot;, &quot;Cantarell&quot;, &quot;Fira Sans&quot;, &quot;Droid Sans&quot;, &quot;Helvetica Neue&quot;, sans-serif" text-anchor="start" opacity="0.5" fill="#021443" stroke="none" transform="matrix(1, 0, 0, 1, 2, 0)">.gitattributes</text></g></g><g opacity="0.5" transform="matrix(1, 0, 0, 1, 301.49571051245437, 359.09090909090946)"><path d="M 5,0 L 94.41347249830794,0 C 96.65204874915398,0 99.41347249830794,2.761423749153968 99.41347249830794,5 L 99.41347249830794,36.42909749830794 C 99.41347249830794,38.66767374915397 96.65204874915398,41.42909749830794 94.41347249830794,41.42909749830794 L 5,41.42909749830794 C 2.761423749153968,41.42909749830794 0,38.66767374915397 0,36.42909749830794 L 0,5 C 0,2.761423749153968 2.761423749153968,0 5,0 z" opacity="0.5" fill="#FFFFFF" stroke="none" transform="matrix(1, 0, 0, 1, 1, 1)"/><path d="M 5,0 L 94.41347249830794,0 C 96.65204874915398,0 99.41347249830794,2.761423749153968 99.41347249830794,5 L 99.41347249830794,36.42909749830794 C 99.41347249830794,38.66767374915397 96.65204874915398,41.42909749830794 94.41347249830794,41.42909749830794 L 5,41.42909749830794 C 2.761423749153968,41.42909749830794 0,38.66767374915397 0,36.42909749830794 L 0,5 C 0,2.761423749153968 2.761423749153968,0 5,0 z" opacity="0.5" fill="none" stroke="#021443" stroke-width="2" stroke-linecap="butt" stroke-linejoin="miter" stroke-miterlimit="10" transform="matrix(1, 0, 0, 1, 1, 1)"/><g opacity="0.5" transform="matrix(1, 0, 0, 1, 11.761423749153975, 11.761423749153968)"><text x="0" y="14.9296875" style="font: bold 16px -apple-system, BlinkMacSystemFont, &quot;Segoe UI&quot;, &quot;Roboto&quot;, &quot;Oxygen&quot;, &quot;Ubuntu&quot;, &quot;Cantarell&quot;, &quot;Fira Sans&quot;, &quot;Droid Sans&quot;, &quot;Helvetica Neue&quot;, sans-serif" text-anchor="start" opacity="0.5" fill="#021443" stroke="none" transform="matrix(1, 0, 0, 1, 2, 0)">.gitignore</text></g></g><g opacity="0.5" transform="matrix(1, 0, 0, 1, 535.8466830107623, 359.09090909090946)"><path d="M 5,0 L 217.35097249830793,0 C 219.58954874915395,0 222.35097249830793,2.761423749153968 222.35097249830793,5 L 222.35097249830793,36.42909749830794 C 222.35097249830793,38.66767374915397 219.58954874915395,41.42909749830794 217.35097249830793,41.42909749830794 L 5,41.42909749830794 C 2.761423749153968,41.42909749830794 0,38.66767374915397 0,36.42909749830794 L 0,5 C 0,2.761423749153968 2.761423749153968,0 5,0 z" opacity="0.5" fill="#FFFFFF" stroke="none" transform="matrix(1, 0, 0, 1, 1, 1)"/><path d="M 5,0 L 217.35097249830793,0 C 219.58954874915395,0 222.35097249830793,2.761423749153968 222.35097249830793,5 L 222.35097249830793,36.42909749830794 C 222.35097249830793,38.66767374915397 219.58954874915395,41.42909749830794 217.35097249830793,41.42909749830794 L 5,41.42909749830794 C 2.761423749153968,41.42909749830794 0,38.66767374915397 0,36.42909749830794 L 0,5 C 0,2.761423749153968 2.761423749153968,0 5,0 z" opacity="0.5" fill="none" stroke="#021443" stroke-width="2" stroke-linecap="butt" stroke-linejoin="miter" stroke-miterlimit="10" transform="matrix(1, 0, 0, 1, 1, 1)"/><g opacity="0.5" transform="matrix(1, 0, 0, 1, 11.761423749153954, 11.761423749153968)"><text x="0" y="14.9296875" style="font: bold 16px -apple-system, BlinkMacSystemFont, &quot;Segoe UI&quot;, &quot;Roboto&quot;, &quot;Oxygen&quot;, &quot;Ubuntu&quot;, &quot;Cantarell&quot;, &quot;Fira Sans&quot;, &quot;Droid Sans&quot;, &quot;Helvetica Neue&quot;, sans-serif" text-anchor="start" opacity="0.5" fill="#021443" stroke="none" transform="matrix(1, 0, 0, 1, 2, 0)">Design of Project(DB).png</text></g></g><g opacity="0.5" transform="matrix(1, 0, 0, 1, 770.1976555090703, 359.09090909090946)"><path d="M 5,0 L 183.48378499830793,0 C 185.72236124915395,0 188.48378499830793,2.761423749153968 188.48378499830793,5 L 188.48378499830793,36.42909749830794 C 188.48378499830793,38.66767374915397 185.72236124915395,41.42909749830794 183.48378499830793,41.42909749830794 L 5,41.42909749830794 C 2.761423749153968,41.42909749830794 0,38.66767374915397 0,36.42909749830794 L 0,5 C 0,2.761423749153968 2.761423749153968,0 5,0 z" opacity="0.5" fill="#FFFFFF" stroke="none" transform="matrix(1, 0, 0, 1, 1, 1)"/><path d="M 5,0 L 183.48378499830793,0 C 185.72236124915395,0 188.48378499830793,2.761423749153968 188.48378499830793,5 L 188.48378499830793,36.42909749830794 C 188.48378499830793,38.66767374915397 185.72236124915395,41.42909749830794 183.48378499830793,41.42909749830794 L 5,41.42909749830794 C 2.761423749153968,41.42909749830794 0,38.66767374915397 0,36.42909749830794 L 0,5 C 0,2.761423749153968 2.761423749153968,0 5,0 z" opacity="0.5" fill="none" stroke="#021443" stroke-width="2" stroke-linecap="butt" stroke-linejoin="miter" stroke-miterlimit="10" transform="matrix(1, 0, 0, 1, 1, 1)"/><g opacity="0.5" transform="matrix(1, 0, 0, 1, 11.761423749153954, 11.761423749153968)"><text x="0" y="14.9296875" style="font: bold 16px -apple-system, BlinkMacSystemFont, &quot;Segoe UI&quot;, &quot;Roboto&quot;, &quot;Oxygen&quot;, &quot;Ubuntu&quot;, &quot;Cantarell&quot;, &quot;Fira Sans&quot;, &quot;Droid Sans&quot;, &quot;Helvetica Neue&quot;, sans-serif" text-anchor="start" opacity="0.5" fill="#021443" stroke="none" transform="matrix(1, 0, 0, 1, 2, 0)">Design of Project.png</text></g></g><g opacity="0.5" transform="matrix(1, 0, 0, 1, 67.14473801414644, 425.6137565892174)"><path d="M 5,0 L 115.48378499830794,0 C 117.72236124915398,0 120.48378499830794,2.761423749153968 120.48378499830794,5 L 120.48378499830794,36.42909749830794 C 120.48378499830794,38.66767374915397 117.72236124915398,41.42909749830794 115.48378499830794,41.42909749830794 L 5,41.42909749830794 C 2.761423749153968,41.42909749830794 0,38.66767374915397 0,36.42909749830794 L 0,5 C 0,2.761423749153968 2.761423749153968,0 5,0 z" opacity="0.5" fill="#FFFFFF" stroke="none" transform="matrix(1, 0, 0, 1, 1, 1)"/><path d="M 5,0 L 115.48378499830794,0 C 117.72236124915398,0 120.48378499830794,2.761423749153968 120.48378499830794,5 L 120.48378499830794,36.42909749830794 C 120.48378499830794,38.66767374915397 117.72236124915398,41.42909749830794 115.48378499830794,41.42909749830794 L 5,41.42909749830794 C 2.761423749153968,41.42909749830794 0,38.66767374915397 0,36.42909749830794 L 0,5 C 0,2.761423749153968 2.761423749153968,0 5,0 z" opacity="0.5" fill="none" stroke="#021443" stroke-width="2" stroke-linecap="butt" stroke-linejoin="miter" stroke-miterlimit="10" transform="matrix(1, 0, 0, 1, 1, 1)"/><g opacity="0.5" transform="matrix(1, 0, 0, 1, 11.761423749153975, 11.761423749153968)"><text x="0" y="14.9296875" style="font: bold 16px -apple-system, BlinkMacSystemFont, &quot;Segoe UI&quot;, &quot;Roboto&quot;, &quot;Oxygen&quot;, &quot;Ubuntu&quot;, &quot;Cantarell&quot;, &quot;Fira Sans&quot;, &quot;Droid Sans&quot;, &quot;Helvetica Neue&quot;, sans-serif" text-anchor="start" opacity="0.5" fill="#021443" stroke="none" transform="matrix(1, 0, 0, 1, 2, 0)">README.md</text></g></g><g opacity="0.5" transform="matrix(1, 0, 0, 1, 301.49571051245437, 425.6137565892174)"><path d="M 5,0 L 156.14003499830793,0 C 158.37861124915395,0 161.14003499830793,2.761423749153968 161.14003499830793,5 L 161.14003499830793,36.42909749830794 C 161.14003499830793,38.66767374915397 158.37861124915395,41.42909749830794 156.14003499830793,41.42909749830794 L 5,41.42909749830794 C 2.761423749153968,41.42909749830794 0,38.66767374915397 0,36.42909749830794 L 0,5 C 0,2.761423749153968 2.761423749153968,0 5,0 z" opacity="0.5" fill="#FFFFFF" stroke="none" transform="matrix(1, 0, 0, 1, 1, 1)"/><path d="M 5,0 L 156.14003499830793,0 C 158.37861124915395,0 161.14003499830793,2.761423749153968 161.14003499830793,5 L 161.14003499830793,36.42909749830794 C 161.14003499830793,38.66767374915397 158.37861124915395,41.42909749830794 156.14003499830793,41.42909749830794 L 5,41.42909749830794 C 2.761423749153968,41.42909749830794 0,38.66767374915397 0,36.42909749830794 L 0,5 C 0,2.761423749153968 2.761423749153968,0 5,0 z" opacity="0.5" fill="none" stroke="#021443" stroke-width="2" stroke-linecap="butt" stroke-linejoin="miter" stroke-miterlimit="10" transform="matrix(1, 0, 0, 1, 1, 1)"/><g opacity="0.5" transform="matrix(1, 0, 0, 1, 11.761423749153954, 11.761423749153968)"><text x="0" y="14.9296875" style="font: bold 16px -apple-system, BlinkMacSystemFont, &quot;Segoe UI&quot;, &quot;Roboto&quot;, &quot;Oxygen&quot;, &quot;Ubuntu&quot;, &quot;Cantarell&quot;, &quot;Fira Sans&quot;, &quot;Droid Sans&quot;, &quot;Helvetica Neue&quot;, sans-serif" text-anchor="start" opacity="0.5" fill="#021443" stroke="none" transform="matrix(1, 0, 0, 1, 2, 0)">package-lock.json</text></g></g><g opacity="0.5" transform="matrix(1, 0, 0, 1, 535.8466830107623, 425.6137565892174)"><path d="M 5,0 L 118.07753499830794,0 C 120.31611124915398,0 123.07753499830794,2.761423749153968 123.07753499830794,5 L 123.07753499830794,36.42909749830794 C 123.07753499830794,38.66767374915397 120.31611124915398,41.42909749830794 118.07753499830794,41.42909749830794 L 5,41.42909749830794 C 2.761423749153968,41.42909749830794 0,38.66767374915397 0,36.42909749830794 L 0,5 C 0,2.761423749153968 2.761423749153968,0 5,0 z" opacity="0.5" fill="#FFFFFF" stroke="none" transform="matrix(1, 0, 0, 1, 1, 1)"/><path d="M 5,0 L 118.07753499830794,0 C 120.31611124915398,0 123.07753499830794,2.761423749153968 123.07753499830794,5 L 123.07753499830794,36.42909749830794 C 123.07753499830794,38.66767374915397 120.31611124915398,41.42909749830794 118.07753499830794,41.42909749830794 L 5,41.42909749830794 C 2.761423749153968,41.42909749830794 0,38.66767374915397 0,36.42909749830794 L 0,5 C 0,2.761423749153968 2.761423749153968,0 5,0 z" opacity="0.5" fill="none" stroke="#021443" stroke-width="2" stroke-linecap="butt" stroke-linejoin="miter" stroke-miterlimit="10" transform="matrix(1, 0, 0, 1, 1, 1)"/><g opacity="0.5" transform="matrix(1, 0, 0, 1, 11.761423749153975, 11.761423749153968)"><text x="0" y="14.9296875" style="font: bold 16px -apple-system, BlinkMacSystemFont, &quot;Segoe UI&quot;, &quot;Roboto&quot;, &quot;Oxygen&quot;, &quot;Ubuntu&quot;, &quot;Cantarell&quot;, &quot;Fira Sans&quot;, &quot;Droid Sans&quot;, &quot;Helvetica Neue&quot;, sans-serif" text-anchor="start" opacity="0.5" fill="#021443" stroke="none" transform="matrix(1, 0, 0, 1, 2, 0)">package.json</text></g></g><g opacity="0.5" transform="matrix(1, 0, 0, 1, 372.2794710669963, 2403.537977421518)"><path d="M 5,0 L 156.14003499830793,0 C 158.37861124915395,0 161.14003499830793,2.761423749153968 161.14003499830793,5 L 161.14003499830793,36.42909749830794 C 161.14003499830793,38.66767374915397 158.37861124915395,41.42909749830794 156.14003499830793,41.42909749830794 L 5,41.42909749830794 C 2.761423749153968,41.42909749830794 0,38.66767374915397 0,36.42909749830794 L 0,5 C 0,2.761423749153968 2.761423749153968,0 5,0 z" opacity="0.5" fill="#FFFFFF" stroke="none" transform="matrix(1, 0, 0, 1, 1, 1)"/><path d="M 5,0 L 156.14003499830793,0 C 158.37861124915395,0 161.14003499830793,2.761423749153968 161.14003499830793,5 L 161.14003499830793,36.42909749830794 C 161.14003499830793,38.66767374915397 158.37861124915395,41.42909749830794 156.14003499830793,41.42909749830794 L 5,41.42909749830794 C 2.761423749153968,41.42909749830794 0,38.66767374915397 0,36.42909749830794 L 0,5 C 0,2.761423749153968 2.761423749153968,0 5,0 z" opacity="0.5" fill="none" stroke="#021443" stroke-width="2" stroke-linecap="butt" stroke-linejoin="miter" stroke-miterlimit="10" transform="matrix(1, 0, 0, 1, 1, 1)"/><g opacity="0.5" transform="matrix(1, 0, 0, 1, 11.761423749153954, 11.761423749153968)"><text x="0" y="14.9296875" style="font: bold 16px -apple-system, BlinkMacSystemFont, &quot;Segoe UI&quot;, &quot;Roboto&quot;, &quot;Oxygen&quot;, &quot;Ubuntu&quot;, &quot;Cantarell&quot;, &quot;Fira Sans&quot;, &quot;Droid Sans&quot;, &quot;Helvetica Neue&quot;, sans-serif" text-anchor="start" opacity="0.5" fill="#021443" stroke="none" transform="matrix(1, 0, 0, 1, 2, 0)">package-lock.json</text></g></g><g opacity="0.5" transform="matrix(1, 0, 0, 1, 633.8048947958098, 2251.035401191012)"><path d="M 5,0 L 118.07753499830794,0 C 120.31611124915398,0 123.07753499830794,2.761423749153968 123.07753499830794,5 L 123.07753499830794,36.42909749830794 C 123.07753499830794,38.66767374915397 120.31611124915398,41.42909749830794 118.07753499830794,41.42909749830794 L 5,41.42909749830794 C 2.761423749153968,41.42909749830794 0,38.66767374915397 0,36.42909749830794 L 0,5 C 0,2.761423749153968 2.761423749153968,0 5,0 z" opacity="0.5" fill="#FFFFFF" stroke="none" transform="matrix(1, 0, 0, 1, 1, 1)"/><path d="M 5,0 L 118.07753499830794,0 C 120.31611124915398,0 123.07753499830794,2.761423749153968 123.07753499830794,5 L 123.07753499830794,36.42909749830794 C 123.07753499830794,38.66767374915397 120.31611124915398,41.42909749830794 118.07753499830794,41.42909749830794 L 5,41.42909749830794 C 2.761423749153968,41.42909749830794 0,38.66767374915397 0,36.42909749830794 L 0,5 C 0,2.761423749153968 2.761423749153968,0 5,0 z" opacity="0.5" fill="none" stroke="#021443" stroke-width="2" stroke-linecap="butt" stroke-linejoin="miter" stroke-miterlimit="10" transform="matrix(1, 0, 0, 1, 1, 1)"/><g opacity="0.5" transform="matrix(1, 0, 0, 1, 11.761423749153975, 11.761423749153968)"><text x="0" y="14.9296875" style="font: bold 16px -apple-system, BlinkMacSystemFont, &quot;Segoe UI&quot;, &quot;Roboto&quot;, &quot;Oxygen&quot;, &quot;Ubuntu&quot;, &quot;Cantarell&quot;, &quot;Fira Sans&quot;, &quot;Droid Sans&quot;, &quot;Helvetica Neue&quot;, sans-serif" text-anchor="start" opacity="0.5" fill="#021443" stroke="none" transform="matrix(1, 0, 0, 1, 2, 0)">package.json</text></g></g><g transform="matrix(1, 0, 0, 1, 877.0162327951265, 729.3698495619739)"><path d="M 5,0 L 64.89784749830794,0 C 67.13642374915398,0 69.89784749830794,2.761423749153968 69.89784749830794,5 L 69.89784749830794,36.42909749830794 C 69.89784749830794,38.66767374915397 67.13642374915398,41.42909749830794 64.89784749830794,41.42909749830794 L 5,41.42909749830794 C 2.761423749153968,41.42909749830794 0,38.66767374915397 0,36.42909749830794 L 0,5 C 0,2.761423749153968 2.761423749153968,0 5,0 z" fill="#FFFFFF" stroke="none" transform="matrix(1, 0, 0, 1, 1, 1)"/><path d="M 5,0 L 64.89784749830794,0 C 67.13642374915398,0 69.89784749830794,2.761423749153968 69.89784749830794,5 L 69.89784749830794,36.42909749830794 C 69.89784749830794,38.66767374915397 67.13642374915398,41.42909749830794 64.89784749830794,41.42909749830794 L 5,41.42909749830794 C 2.761423749153968,41.42909749830794 0,38.66767374915397 0,36.42909749830794 L 0,5 C 0,2.761423749153968 2.761423749153968,0 5,0 z" fill="none" stroke="#021443" stroke-width="2" stroke-linecap="butt" stroke-linejoin="miter" stroke-miterlimit="10" transform="matrix(1, 0, 0, 1, 1, 1)"/><g transform="matrix(1, 0, 0, 1, 11.761423749153975, 11.761423749153968)"><text x="0" y="14.9296875" style="font: bold 16px -apple-system, BlinkMacSystemFont, &quot;Segoe UI&quot;, &quot;Roboto&quot;, &quot;Oxygen&quot;, &quot;Ubuntu&quot;, &quot;Cantarell&quot;, &quot;Fira Sans&quot;, &quot;Droid Sans&quot;, &quot;Helvetica Neue&quot;, sans-serif" text-anchor="start" fill="#021443" stroke="none" transform="matrix(1, 0, 0, 1, 2, 0)">app.js</text></g></g><g transform="matrix(1, 0, 0, 1, 685.865739316685, 1178.0561834142295)"><path d="M 5,0 L 81.40565999830794,0 C 83.64423624915398,0 86.40565999830794,2.761423749153968 86.40565999830794,5 L 86.40565999830794,36.42909749830794 C 86.40565999830794,38.66767374915397 83.64423624915398,41.42909749830794 81.40565999830794,41.42909749830794 L 5,41.42909749830794 C 2.761423749153968,41.42909749830794 0,38.66767374915397 0,36.42909749830794 L 0,5 C 0,2.761423749153968 2.761423749153968,0 5,0 z" fill="#FFFFFF" stroke="none" transform="matrix(1, 0, 0, 1, 1, 1)"/><path d="M 5,0 L 81.40565999830794,0 C 83.64423624915398,0 86.40565999830794,2.761423749153968 86.40565999830794,5 L 86.40565999830794,36.42909749830794 C 86.40565999830794,38.66767374915397 83.64423624915398,41.42909749830794 81.40565999830794,41.42909749830794 L 5,41.42909749830794 C 2.761423749153968,41.42909749830794 0,38.66767374915397 0,36.42909749830794 L 0,5 C 0,2.761423749153968 2.761423749153968,0 5,0 z" fill="none" stroke="#021443" stroke-width="2" stroke-linecap="butt" stroke-linejoin="miter" stroke-miterlimit="10" transform="matrix(1, 0, 0, 1, 1, 1)"/><g transform="matrix(1, 0, 0, 1, 11.761423749153975, 11.761423749153968)"><text x="0" y="14.9296875" style="font: bold 16px -apple-system, BlinkMacSystemFont, &quot;Segoe UI&quot;, &quot;Roboto&quot;, &quot;Oxygen&quot;, &quot;Ubuntu&quot;, &quot;Cantarell&quot;, &quot;Fira Sans&quot;, &quot;Droid Sans&quot;, &quot;Helvetica Neue&quot;, sans-serif" text-anchor="start" fill="#021443" stroke="none" transform="matrix(1, 0, 0, 1, 2, 0)">server.js</text></g></g><g transform="matrix(1, 0, 0, 1, 965.5290987438344, 1440.262868380491)"><path d="M 5,0 L 153.85097249830793,0 C 156.08954874915395,0 158.85097249830793,2.761423749153968 158.85097249830793,5 L 158.85097249830793,36.42909749830794 C 158.85097249830793,38.66767374915397 156.08954874915395,41.42909749830794 153.85097249830793,41.42909749830794 L 5,41.42909749830794 C 2.761423749153968,41.42909749830794 0,38.66767374915397 0,36.42909749830794 L 0,5 C 0,2.761423749153968 2.761423749153968,0 5,0 z" fill="#FFFFFF" stroke="none" transform="matrix(1, 0, 0, 1, 1, 1)"/><path d="M 5,0 L 153.85097249830793,0 C 156.08954874915395,0 158.85097249830793,2.761423749153968 158.85097249830793,5 L 158.85097249830793,36.42909749830794 C 158.85097249830793,38.66767374915397 156.08954874915395,41.42909749830794 153.85097249830793,41.42909749830794 L 5,41.42909749830794 C 2.761423749153968,41.42909749830794 0,38.66767374915397 0,36.42909749830794 L 0,5 C 0,2.761423749153968 2.761423749153968,0 5,0 z" fill="none" stroke="#021443" stroke-width="2" stroke-linecap="butt" stroke-linejoin="miter" stroke-miterlimit="10" transform="matrix(1, 0, 0, 1, 1, 1)"/><g transform="matrix(1, 0, 0, 1, 11.761423749153954, 11.761423749153968)"><text x="0" y="14.9296875" style="font: bold 16px -apple-system, BlinkMacSystemFont, &quot;Segoe UI&quot;, &quot;Roboto&quot;, &quot;Oxygen&quot;, &quot;Ubuntu&quot;, &quot;Cantarell&quot;, &quot;Fira Sans&quot;, &quot;Droid Sans&quot;, &quot;Helvetica Neue&quot;, sans-serif" text-anchor="start" fill="#021443" stroke="none" transform="matrix(1, 0, 0, 1, 2, 0)">launches.model.js</text></g></g><g transform="matrix(1, 0, 0, 1, 1656.3800712421423, 1452.762868380491)"><path d="M 5,0 L 160.10878499830793,0 C 162.34736124915395,0 165.10878499830793,2.761423749153968 165.10878499830793,5 L 165.10878499830793,36.42909749830794 C 165.10878499830793,38.66767374915397 162.34736124915395,41.42909749830794 160.10878499830793,41.42909749830794 L 5,41.42909749830794 C 2.761423749153968,41.42909749830794 0,38.66767374915397 0,36.42909749830794 L 0,5 C 0,2.761423749153968 2.761423749153968,0 5,0 z" fill="#FFFFFF" stroke="none" transform="matrix(1, 0, 0, 1, 1, 1)"/><path d="M 5,0 L 160.10878499830793,0 C 162.34736124915395,0 165.10878499830793,2.761423749153968 165.10878499830793,5 L 165.10878499830793,36.42909749830794 C 165.10878499830793,38.66767374915397 162.34736124915395,41.42909749830794 160.10878499830793,41.42909749830794 L 5,41.42909749830794 C 2.761423749153968,41.42909749830794 0,38.66767374915397 0,36.42909749830794 L 0,5 C 0,2.761423749153968 2.761423749153968,0 5,0 z" fill="none" stroke="#021443" stroke-width="2" stroke-linecap="butt" stroke-linejoin="miter" stroke-miterlimit="10" transform="matrix(1, 0, 0, 1, 1, 1)"/><g transform="matrix(1, 0, 0, 1, 11.761423749153954, 11.761423749153968)"><text x="0" y="14.9296875" style="font: bold 16px -apple-system, BlinkMacSystemFont, &quot;Segoe UI&quot;, &quot;Roboto&quot;, &quot;Oxygen&quot;, &quot;Ubuntu&quot;, &quot;Cantarell&quot;, &quot;Fira Sans&quot;, &quot;Droid Sans&quot;, &quot;Helvetica Neue&quot;, sans-serif" text-anchor="start" fill="#021443" stroke="none" transform="matrix(1, 0, 0, 1, 2, 0)">launches.mongo.js</text></g></g><g transform="matrix(1, 0, 0, 1, 970.9509737438345, 2048.6919658787983)"><path d="M 5,0 L 143.00722249830793,0 C 145.24579874915395,0 148.00722249830793,2.761423749153968 148.00722249830793,5 L 148.00722249830793,36.42909749830794 C 148.00722249830793,38.66767374915397 145.24579874915395,41.42909749830794 143.00722249830793,41.42909749830794 L 5,41.42909749830794 C 2.761423749153968,41.42909749830794 0,38.66767374915397 0,36.42909749830794 L 0,5 C 0,2.761423749153968 2.761423749153968,0 5,0 z" fill="#FFFFFF" stroke="none" transform="matrix(1, 0, 0, 1, 1, 1)"/><path d="M 5,0 L 143.00722249830793,0 C 145.24579874915395,0 148.00722249830793,2.761423749153968 148.00722249830793,5 L 148.00722249830793,36.42909749830794 C 148.00722249830793,38.66767374915397 145.24579874915395,41.42909749830794 143.00722249830793,41.42909749830794 L 5,41.42909749830794 C 2.761423749153968,41.42909749830794 0,38.66767374915397 0,36.42909749830794 L 0,5 C 0,2.761423749153968 2.761423749153968,0 5,0 z" fill="none" stroke="#021443" stroke-width="2" stroke-linecap="butt" stroke-linejoin="miter" stroke-miterlimit="10" transform="matrix(1, 0, 0, 1, 1, 1)"/><g transform="matrix(1, 0, 0, 1, 11.761423749153954, 11.761423749153968)"><text x="0" y="14.9296875" style="font: bold 16px -apple-system, BlinkMacSystemFont, &quot;Segoe UI&quot;, &quot;Roboto&quot;, &quot;Oxygen&quot;, &quot;Ubuntu&quot;, &quot;Cantarell&quot;, &quot;Fira Sans&quot;, &quot;Droid Sans&quot;, &quot;Helvetica Neue&quot;, sans-serif" text-anchor="start" fill="#021443" stroke="none" transform="matrix(1, 0, 0, 1, 2, 0)">planets.model.js</text></g></g><g transform="matrix(1, 0, 0, 1, 1679.3019462421428, 2043.6919658787986)"><path d="M 5,0 L 149.26503499830793,0 C 151.50361124915395,0 154.26503499830793,2.761423749153968 154.26503499830793,5 L 154.26503499830793,36.42909749830794 C 154.26503499830793,38.66767374915397 151.50361124915395,41.42909749830794 149.26503499830793,41.42909749830794 L 5,41.42909749830794 C 2.761423749153968,41.42909749830794 0,38.66767374915397 0,36.42909749830794 L 0,5 C 0,2.761423749153968 2.761423749153968,0 5,0 z" fill="#FFFFFF" stroke="none" transform="matrix(1, 0, 0, 1, 1, 1)"/><path d="M 5,0 L 149.26503499830793,0 C 151.50361124915395,0 154.26503499830793,2.761423749153968 154.26503499830793,5 L 154.26503499830793,36.42909749830794 C 154.26503499830793,38.66767374915397 151.50361124915395,41.42909749830794 149.26503499830793,41.42909749830794 L 5,41.42909749830794 C 2.761423749153968,41.42909749830794 0,38.66767374915397 0,36.42909749830794 L 0,5 C 0,2.761423749153968 2.761423749153968,0 5,0 z" fill="none" stroke="#021443" stroke-width="2" stroke-linecap="butt" stroke-linejoin="miter" stroke-miterlimit="10" transform="matrix(1, 0, 0, 1, 1, 1)"/><g transform="matrix(1, 0, 0, 1, 11.761423749153954, 11.761423749153968)"><text x="0" y="14.9296875" style="font: bold 16px -apple-system, BlinkMacSystemFont, &quot;Segoe UI&quot;, &quot;Roboto&quot;, &quot;Oxygen&quot;, &quot;Ubuntu&quot;, &quot;Cantarell&quot;, &quot;Fira Sans&quot;, &quot;Droid Sans&quot;, &quot;Helvetica Neue&quot;, sans-serif" text-anchor="start" fill="#021443" stroke="none" transform="matrix(1, 0, 0, 1, 2, 0)">planets.mongo.js</text></g></g><g transform="matrix(1, 0, 0, 1, -92.72641193446748, 1484.068519400782)"><path d="M 5,0 L 59.52284749830794,0 C 61.76142374915397,0 64.52284749830794,2.761423749153968 64.52284749830794,5 L 64.52284749830794,36.42909749830794 C 64.52284749830794,38.66767374915397 61.76142374915397,41.42909749830794 59.52284749830794,41.42909749830794 L 5,41.42909749830794 C 2.761423749153968,41.42909749830794 0,38.66767374915397 0,36.42909749830794 L 0,5 C 0,2.761423749153968 2.761423749153968,0 5,0 z" fill="#FFFFFF" stroke="none" transform="matrix(1, 0, 0, 1, 1, 1)"/><path d="M 5,0 L 59.52284749830794,0 C 61.76142374915397,0 64.52284749830794,2.761423749153968 64.52284749830794,5 L 64.52284749830794,36.42909749830794 C 64.52284749830794,38.66767374915397 61.76142374915397,41.42909749830794 59.52284749830794,41.42909749830794 L 5,41.42909749830794 C 2.761423749153968,41.42909749830794 0,38.66767374915397 0,36.42909749830794 L 0,5 C 0,2.761423749153968 2.761423749153968,0 5,0 z" fill="none" stroke="#021443" stroke-width="2" stroke-linecap="butt" stroke-linejoin="miter" stroke-miterlimit="10" transform="matrix(1, 0, 0, 1, 1, 1)"/><g transform="matrix(1, 0, 0, 1, 11.761423749153968, 11.761423749153968)"><text x="0" y="14.9296875" style="font: bold 16px -apple-system, BlinkMacSystemFont, &quot;Segoe UI&quot;, &quot;Roboto&quot;, &quot;Oxygen&quot;, &quot;Ubuntu&quot;, &quot;Cantarell&quot;, &quot;Fira Sans&quot;, &quot;Droid Sans&quot;, &quot;Helvetica Neue&quot;, sans-serif" text-anchor="start" fill="#021443" stroke="none" transform="matrix(1, 0, 0, 1, 2, 0)">api.js</text></g></g><g transform="matrix(1, 0, 0, 1, 407.11378574344985, 1617.788629235486)"><path d="M 5,0 L 178.59315999830793,0 C 180.83173624915395,0 183.59315999830793,2.761423749153968 183.59315999830793,5 L 183.59315999830793,36.42909749830794 C 183.59315999830793,38.66767374915397 180.83173624915395,41.42909749830794 178.59315999830793,41.42909749830794 L 5,41.42909749830794 C 2.761423749153968,41.42909749830794 0,38.66767374915397 0,36.42909749830794 L 0,5 C 0,2.761423749153968 2.761423749153968,0 5,0 z" fill="#FFFFFF" stroke="none" transform="matrix(1, 0, 0, 1, 1, 1)"/><path d="M 5,0 L 178.59315999830793,0 C 180.83173624915395,0 183.59315999830793,2.761423749153968 183.59315999830793,5 L 183.59315999830793,36.42909749830794 C 183.59315999830793,38.66767374915397 180.83173624915395,41.42909749830794 178.59315999830793,41.42909749830794 L 5,41.42909749830794 C 2.761423749153968,41.42909749830794 0,38.66767374915397 0,36.42909749830794 L 0,5 C 0,2.761423749153968 2.761423749153968,0 5,0 z" fill="none" stroke="#021443" stroke-width="2" stroke-linecap="butt" stroke-linejoin="miter" stroke-miterlimit="10" transform="matrix(1, 0, 0, 1, 1, 1)"/><g transform="matrix(1, 0, 0, 1, 11.761423749153954, 11.761423749153968)"><text x="0" y="14.9296875" style="font: bold 16px -apple-system, BlinkMacSystemFont, &quot;Segoe UI&quot;, &quot;Roboto&quot;, &quot;Oxygen&quot;, &quot;Ubuntu&quot;, &quot;Cantarell&quot;, &quot;Fira Sans&quot;, &quot;Droid Sans&quot;, &quot;Helvetica Neue&quot;, sans-serif" text-anchor="start" fill="#021443" stroke="none" transform="matrix(1, 0, 0, 1, 2, 0)">launches.controller.js</text></g></g><g transform="matrix(1, 0, 0, 1, 312.4851879834598, 1900.169799321755)"><path d="M 5,0 L 151.97597249830793,0 C 154.21454874915395,0 156.97597249830793,2.761423749153968 156.97597249830793,5 L 156.97597249830793,36.42909749830794 C 156.97597249830793,38.66767374915397 154.21454874915395,41.42909749830794 151.97597249830793,41.42909749830794 L 5,41.42909749830794 C 2.761423749153968,41.42909749830794 0,38.66767374915397 0,36.42909749830794 L 0,5 C 0,2.761423749153968 2.761423749153968,0 5,0 z" fill="#FFFFFF" stroke="none" transform="matrix(1, 0, 0, 1, 1, 1)"/><path d="M 5,0 L 151.97597249830793,0 C 154.21454874915395,0 156.97597249830793,2.761423749153968 156.97597249830793,5 L 156.97597249830793,36.42909749830794 C 156.97597249830793,38.66767374915397 154.21454874915395,41.42909749830794 151.97597249830793,41.42909749830794 L 5,41.42909749830794 C 2.761423749153968,41.42909749830794 0,38.66767374915397 0,36.42909749830794 L 0,5 C 0,2.761423749153968 2.761423749153968,0 5,0 z" fill="none" stroke="#021443" stroke-width="2" stroke-linecap="butt" stroke-linejoin="miter" stroke-miterlimit="10" transform="matrix(1, 0, 0, 1, 1, 1)"/><g transform="matrix(1, 0, 0, 1, 11.761423749153954, 11.761423749153968)"><text x="0" y="14.9296875" style="font: bold 16px -apple-system, BlinkMacSystemFont, &quot;Segoe UI&quot;, &quot;Roboto&quot;, &quot;Oxygen&quot;, &quot;Ubuntu&quot;, &quot;Cantarell&quot;, &quot;Fira Sans&quot;, &quot;Droid Sans&quot;, &quot;Helvetica Neue&quot;, sans-serif" text-anchor="start" fill="#021443" stroke="none" transform="matrix(1, 0, 0, 1, 2, 0)">launches.router.js</text></g></g><g transform="matrix(1, 0, 0, 1, -68.21608998961528, 2171.310201188023)"><path d="M 5,0 L 134.39003499830793,0 C 136.62861124915395,0 139.39003499830793,2.761423749153968 139.39003499830793,5 L 139.39003499830793,36.42909749830794 C 139.39003499830793,38.66767374915397 136.62861124915395,41.42909749830794 134.39003499830793,41.42909749830794 L 5,41.42909749830794 C 2.761423749153968,41.42909749830794 0,38.66767374915397 0,36.42909749830794 L 0,5 C 0,2.761423749153968 2.761423749153968,0 5,0 z" fill="#FFFFFF" stroke="none" transform="matrix(1, 0, 0, 1, 1, 1)"/><path d="M 5,0 L 134.39003499830793,0 C 136.62861124915395,0 139.39003499830793,2.761423749153968 139.39003499830793,5 L 139.39003499830793,36.42909749830794 C 139.39003499830793,38.66767374915397 136.62861124915395,41.42909749830794 134.39003499830793,41.42909749830794 L 5,41.42909749830794 C 2.761423749153968,41.42909749830794 0,38.66767374915397 0,36.42909749830794 L 0,5 C 0,2.761423749153968 2.761423749153968,0 5,0 z" fill="none" stroke="#021443" stroke-width="2" stroke-linecap="butt" stroke-linejoin="miter" stroke-miterlimit="10" transform="matrix(1, 0, 0, 1, 1, 1)"/><g transform="matrix(1, 0, 0, 1, 11.761423749153954, 11.761423749153968)"><text x="0" y="14.9296875" style="font: bold 16px -apple-system, BlinkMacSystemFont, &quot;Segoe UI&quot;, &quot;Roboto&quot;, &quot;Oxygen&quot;, &quot;Ubuntu&quot;, &quot;Cantarell&quot;, &quot;Fira Sans&quot;, &quot;Droid Sans&quot;, &quot;Helvetica Neue&quot;, sans-serif" text-anchor="start" fill="#021443" stroke="none" transform="matrix(1, 0, 0, 1, 2, 0)">launches.test.js</text></g></g><g transform="matrix(1, 0, 0, 1, 42.556789176738164, 1291.5299754360155)"><path d="M 5,0 L 167.74940999830793,0 C 169.98798624915395,0 172.74940999830793,2.761423749153968 172.74940999830793,5 L 172.74940999830793,36.42909749830794 C 172.74940999830793,38.66767374915397 169.98798624915395,41.42909749830794 167.74940999830793,41.42909749830794 L 5,41.42909749830794 C 2.761423749153968,41.42909749830794 0,38.66767374915397 0,36.42909749830794 L 0,5 C 0,2.761423749153968 2.761423749153968,0 5,0 z" fill="#FFFFFF" stroke="none" transform="matrix(1, 0, 0, 1, 1, 1)"/><path d="M 5,0 L 167.74940999830793,0 C 169.98798624915395,0 172.74940999830793,2.761423749153968 172.74940999830793,5 L 172.74940999830793,36.42909749830794 C 172.74940999830793,38.66767374915397 169.98798624915395,41.42909749830794 167.74940999830793,41.42909749830794 L 5,41.42909749830794 C 2.761423749153968,41.42909749830794 0,38.66767374915397 0,36.42909749830794 L 0,5 C 0,2.761423749153968 2.761423749153968,0 5,0 z" fill="none" stroke="#021443" stroke-width="2" stroke-linecap="butt" stroke-linejoin="miter" stroke-miterlimit="10" transform="matrix(1, 0, 0, 1, 1, 1)"/><g transform="matrix(1, 0, 0, 1, 11.761423749153954, 11.761423749153968)"><text x="0" y="14.9296875" style="font: bold 16px -apple-system, BlinkMacSystemFont, &quot;Segoe UI&quot;, &quot;Roboto&quot;, &quot;Oxygen&quot;, &quot;Ubuntu&quot;, &quot;Cantarell&quot;, &quot;Fira Sans&quot;, &quot;Droid Sans&quot;, &quot;Helvetica Neue&quot;, sans-serif" text-anchor="start" fill="#021443" stroke="none" transform="matrix(1, 0, 0, 1, 2, 0)">planets.controller.js</text></g></g><g transform="matrix(1, 0, 0, 1, -37.18560281309499, 708.4791279783881)"><path d="M 5,0 L 141.13222249830793,0 C 143.37079874915395,0 146.13222249830793,2.761423749153968 146.13222249830793,5 L 146.13222249830793,36.42909749830794 C 146.13222249830793,38.66767374915397 143.37079874915395,41.42909749830794 141.13222249830793,41.42909749830794 L 5,41.42909749830794 C 2.761423749153968,41.42909749830794 0,38.66767374915397 0,36.42909749830794 L 0,5 C 0,2.761423749153968 2.761423749153968,0 5,0 z" fill="#FFFFFF" stroke="none" transform="matrix(1, 0, 0, 1, 1, 1)"/><path d="M 5,0 L 141.13222249830793,0 C 143.37079874915395,0 146.13222249830793,2.761423749153968 146.13222249830793,5 L 146.13222249830793,36.42909749830794 C 146.13222249830793,38.66767374915397 143.37079874915395,41.42909749830794 141.13222249830793,41.42909749830794 L 5,41.42909749830794 C 2.761423749153968,41.42909749830794 0,38.66767374915397 0,36.42909749830794 L 0,5 C 0,2.761423749153968 2.761423749153968,0 5,0 z" fill="none" stroke="#021443" stroke-width="2" stroke-linecap="butt" stroke-linejoin="miter" stroke-miterlimit="10" transform="matrix(1, 0, 0, 1, 1, 1)"/><g transform="matrix(1, 0, 0, 1, 11.761423749153954, 11.761423749153968)"><text x="0" y="14.9296875" style="font: bold 16px -apple-system, BlinkMacSystemFont, &quot;Segoe UI&quot;, &quot;Roboto&quot;, &quot;Oxygen&quot;, &quot;Ubuntu&quot;, &quot;Cantarell&quot;, &quot;Fira Sans&quot;, &quot;Droid Sans&quot;, &quot;Helvetica Neue&quot;, sans-serif" text-anchor="start" fill="#021443" stroke="none" transform="matrix(1, 0, 0, 1, 2, 0)">planets.router.js</text></g></g><g transform="matrix(1, 0, 0, 1, 1619.1750234292904, 1292.6350225985425)"><path d="M 5,0 L 51.86659749830794,0 C 54.10517374915397,0 56.86659749830794,2.761423749153968 56.86659749830794,5 L 56.86659749830794,36.42909749830794 C 56.86659749830794,38.66767374915397 54.10517374915397,41.42909749830794 51.86659749830794,41.42909749830794 L 5,41.42909749830794 C 2.761423749153968,41.42909749830794 0,38.66767374915397 0,36.42909749830794 L 0,5 C 0,2.761423749153968 2.761423749153968,0 5,0 z" fill="#FFFFFF" stroke="none" transform="matrix(1, 0, 0, 1, 1, 1)"/><path d="M 5,0 L 51.86659749830794,0 C 54.10517374915397,0 56.86659749830794,2.761423749153968 56.86659749830794,5 L 56.86659749830794,36.42909749830794 C 56.86659749830794,38.66767374915397 54.10517374915397,41.42909749830794 51.86659749830794,41.42909749830794 L 5,41.42909749830794 C 2.761423749153968,41.42909749830794 0,38.66767374915397 0,36.42909749830794 L 0,5 C 0,2.761423749153968 2.761423749153968,0 5,0 z" fill="none" stroke="#021443" stroke-width="2" stroke-linecap="butt" stroke-linejoin="miter" stroke-miterlimit="10" transform="matrix(1, 0, 0, 1, 1, 1)"/><g transform="matrix(1, 0, 0, 1, 11.761423749153968, 11.761423749153968)"><text x="0" y="14.9296875" style="font: bold 16px -apple-system, BlinkMacSystemFont, &quot;Segoe UI&quot;, &quot;Roboto&quot;, &quot;Oxygen&quot;, &quot;Ubuntu&quot;, &quot;Cantarell&quot;, &quot;Fira Sans&quot;, &quot;Droid Sans&quot;, &quot;Helvetica Neue&quot;, sans-serif" text-anchor="start" fill="#021443" stroke="none" transform="matrix(1, 0, 0, 1, 2, 0)">.env</text></g></g><g transform="matrix(1, 0, 0, 1, 1597.1411251242062, 672.5564886188756)"><path d="M 5,0 L 90.24940999830794,0 C 92.48798624915398,0 95.24940999830794,2.761423749153968 95.24940999830794,5 L 95.24940999830794,36.42909749830794 C 95.24940999830794,38.66767374915397 92.48798624915398,41.42909749830794 90.24940999830794,41.42909749830794 L 5,41.42909749830794 C 2.761423749153968,41.42909749830794 0,38.66767374915397 0,36.42909749830794 L 0,5 C 0,2.761423749153968 2.761423749153968,0 5,0 z" fill="#FFFFFF" stroke="none" transform="matrix(1, 0, 0, 1, 1, 1)"/><path d="M 5,0 L 90.24940999830794,0 C 92.48798624915398,0 95.24940999830794,2.761423749153968 95.24940999830794,5 L 95.24940999830794,36.42909749830794 C 95.24940999830794,38.66767374915397 92.48798624915398,41.42909749830794 90.24940999830794,41.42909749830794 L 5,41.42909749830794 C 2.761423749153968,41.42909749830794 0,38.66767374915397 0,36.42909749830794 L 0,5 C 0,2.761423749153968 2.761423749153968,0 5,0 z" fill="none" stroke="#021443" stroke-width="2" stroke-linecap="butt" stroke-linejoin="miter" stroke-miterlimit="10" transform="matrix(1, 0, 0, 1, 1, 1)"/><g transform="matrix(1, 0, 0, 1, 11.761423749153975, 11.761423749153968)"><text x="0" y="14.9296875" style="font: bold 16px -apple-system, BlinkMacSystemFont, &quot;Segoe UI&quot;, &quot;Roboto&quot;, &quot;Oxygen&quot;, &quot;Ubuntu&quot;, &quot;Cantarell&quot;, &quot;Fira Sans&quot;, &quot;Droid Sans&quot;, &quot;Helvetica Neue&quot;, sans-serif" text-anchor="start" fill="#021443" stroke="none" transform="matrix(1, 0, 0, 1, 2, 0)">mongo.js</text></g></g><g transform="matrix(1, 0, 0, 1, 1602.5551876242057, 1015.6466030663364)"><path d="M 5,0 L 79.42128499830794,0 C 81.65986124915398,0 84.42128499830794,2.761423749153968 84.42128499830794,5 L 84.42128499830794,36.42909749830794 C 84.42128499830794,38.66767374915397 81.65986124915398,41.42909749830794 79.42128499830794,41.42909749830794 L 5,41.42909749830794 C 2.761423749153968,41.42909749830794 0,38.66767374915397 0,36.42909749830794 L 0,5 C 0,2.761423749153968 2.761423749153968,0 5,0 z" fill="#FFFFFF" stroke="none" transform="matrix(1, 0, 0, 1, 1, 1)"/><path d="M 5,0 L 79.42128499830794,0 C 81.65986124915398,0 84.42128499830794,2.761423749153968 84.42128499830794,5 L 84.42128499830794,36.42909749830794 C 84.42128499830794,38.66767374915397 81.65986124915398,41.42909749830794 79.42128499830794,41.42909749830794 L 5,41.42909749830794 C 2.761423749153968,41.42909749830794 0,38.66767374915397 0,36.42909749830794 L 0,5 C 0,2.761423749153968 2.761423749153968,0 5,0 z" fill="none" stroke="#021443" stroke-width="2" stroke-linecap="butt" stroke-linejoin="miter" stroke-miterlimit="10" transform="matrix(1, 0, 0, 1, 1, 1)"/><g transform="matrix(1, 0, 0, 1, 11.761423749153975, 11.761423749153968)"><text x="0" y="14.9296875" style="font: bold 16px -apple-system, BlinkMacSystemFont, &quot;Segoe UI&quot;, &quot;Roboto&quot;, &quot;Oxygen&quot;, &quot;Ubuntu&quot;, &quot;Cantarell&quot;, &quot;Fira Sans&quot;, &quot;Droid Sans&quot;, &quot;Helvetica Neue&quot;, sans-serif" text-anchor="start" fill="#021443" stroke="none" transform="matrix(1, 0, 0, 1, 2, 0)">query.js</text></g></g></g></g><clipPath id="mainClip453829"><rect x="0" y="0" width="2864px" height="2518px"/></clipPath></svg>